<svg xmlns="http://www.w3.org/2000/svg" xmlns:xlink="http://www.w3.org/1999/xlink" width="375" height="187" viewBox="0 0 375 187">
  <defs>
    <clipPath id="clip-path">
      <rect id="Rectangle_1092" data-name="Rectangle 1092" width="130" height="187" transform="translate(-1140 2571)" fill="#fff"/>
    </clipPath>
  </defs>
  <g id="Group_2804" data-name="Group 2804" transform="translate(-352 -98)">
    <path id="Path_1137" data-name="Path 1137" d="M0,0H375V187H0Z" transform="translate(352 98)" fill="#3498db" fill-rule="evenodd"/>
    <g id="Mask_Group_1" data-name="Mask Group 1" transform="translate(1492 -2473)" opacity="0.2" clip-path="url(#clip-path)">
      <path id="Path_1141" data-name="Path 1141" d="M-15.744,203.26,4.328,243.894a9.579,9.579,0,0,0,7.231,5.233l44.887,6.517a9.557,9.557,0,0,1,5.314,16.312L29.273,303.593a9.594,9.594,0,0,0-2.757,8.473l7.667,44.653a9.575,9.575,0,0,1-13.9,10.082l-40.154-21.077a9.6,9.6,0,0,0-8.92,0L-68.953,366.8a9.576,9.576,0,0,1-13.9-10.082l7.672-44.653a9.556,9.556,0,0,0-2.757-8.473l-32.487-31.636a9.557,9.557,0,0,1,5.314-16.312l44.9-6.517A9.6,9.6,0,0,0-53,243.894L-32.93,203.26a9.586,9.586,0,0,1,17.186,0Zm0,0" transform="translate(-1076.666 2413.076)" fill="#fff"/>
    </g>
  </g>
</svg>
