<svg xmlns="http://www.w3.org/2000/svg" xmlns:xlink="http://www.w3.org/1999/xlink" width="375" height="187" viewBox="0 0 375 187">
  <defs>
    <clipPath id="clip-path">
      <rect id="Rectangle_1094" data-name="Rectangle 1094" width="130" height="187" transform="translate(-352 2575)" fill="#fff"/>
    </clipPath>
  </defs>
  <g id="Group_2808" data-name="Group 2808" transform="translate(-1134 -98)">
    <path id="Path_1139" data-name="Path 1139" d="M789,0h375V187H789Z" transform="translate(345 98)" fill="#f1c40f" fill-rule="evenodd"/>
    <g id="Mask_Group_3" data-name="Mask Group 3" transform="translate(1486 -2477)" opacity="0.2" clip-path="url(#clip-path)">
      <g id="Group_2793" data-name="Group 2793" transform="translate(-702.115 1975.425)">
        <path id="Path_1144" data-name="Path 1144" d="M433.774,724.946,449,709.718a5.379,5.379,0,0,0,0-7.615l-7.615-7.621a5.389,5.389,0,0,0-7.615,0L418.54,709.718l-15.222-15.224a5.4,5.4,0,0,0-7.627-.012l-7.612,7.621a5.383,5.383,0,0,0,.009,7.621l15.225,15.222-15.2,15.2a5.384,5.384,0,0,0,0,7.615l7.615,7.618a5.385,5.385,0,0,0,7.616,0l15.195-15.2,15.3,15.31a5.384,5.384,0,0,0,7.624.006l7.616-7.615a5.39,5.39,0,0,0-.006-7.624Z" transform="translate(-12.461 -12.435)" fill="#fff"/>
        <g id="Path_1145" data-name="Path 1145" transform="translate(-3.397 -2.99)" fill="none" stroke-miterlimit="10">
          <path d="M409.455,789.368a73.4,73.4,0,1,1,73.4-73.4,73.4,73.4,0,0,1-73.4,73.4Z" stroke="none"/>
          <path d="M 409.4546203613281 783.3681030273438 C 446.6200561523438 783.3681030273438 476.8563537597656 753.1318359375 476.8563537597656 715.9664916992188 C 476.8563537597656 678.8010864257813 446.6200561523438 648.5648193359375 409.4546203613281 648.5648193359375 C 372.2892761230469 648.5648193359375 342.0530395507813 678.8010864257813 342.0530395507813 715.9664916992188 C 342.0530395507813 753.1318359375 372.2892761230469 783.3681030273438 409.4546203613281 783.3681030273438 M 409.4546203613281 789.3681030273438 C 368.9140014648438 789.3681030273438 336.0530395507813 756.5072631835938 336.0530395507813 715.9664916992188 C 336.0530395507813 675.4290161132813 368.9140014648438 642.5648193359375 409.4546203613281 642.5648193359375 C 449.9953002929688 642.5648193359375 482.8563537597656 675.4257202148438 482.8563537597656 715.9664916992188 C 482.8563537597656 756.5072631835938 449.9953002929688 789.3681030273438 409.4546203613281 789.3681030273438 Z" stroke="none" fill="#fff"/>
        </g>
        <path id="Path_1146" data-name="Path 1146" d="M429.022,828.5" transform="translate(-22.964 -45.928)" fill="#e2574c"/>
      </g>
    </g>
  </g>
</svg>
