<svg xmlns="http://www.w3.org/2000/svg" xmlns:xlink="http://www.w3.org/1999/xlink" width="375" height="187" viewBox="0 0 375 187">
  <defs>
    <clipPath id="clip-path">
      <rect id="Rectangle_1093" data-name="Rectangle 1093" width="130" height="187" transform="translate(-748 2569)" fill="#fff"/>
    </clipPath>
  </defs>
  <g id="Group_2807" data-name="Group 2807" transform="translate(-743 -98)">
    <g id="Group_2805" data-name="Group 2805">
      <g id="Group_2806" data-name="Group 2806">
        <path id="Path_1138" data-name="Path 1138" d="M394,0H769V187H394Z" transform="translate(349 98)" fill="#e74c3c" fill-rule="evenodd"/>
      </g>
    </g>
    <g id="Mask_Group_2" data-name="Mask Group 2" transform="translate(1491 -2471)" opacity="0.2" clip-path="url(#clip-path)">
      <g id="Group_2792" data-name="Group 2792" transform="translate(-1242.389 2837.021)">
        <path id="Path_1142" data-name="Path 1142" d="M613.711-132.939a3.54,3.54,0,0,0-3.405,3.662v32.5C610.3-90.718,605.728-85.8,600.087-85.8H504.508c-5.641-.006-10.213-4.919-10.219-10.981v-95.383c.006-6.062,4.578-10.974,10.219-10.981h30.245a3.54,3.54,0,0,0,3.405-3.661,3.541,3.541,0,0,0-3.405-3.661H504.508c-9.4.012-17.021,8.2-17.031,18.3v95.384c.01,10.1,7.63,18.29,17.031,18.3h95.579c9.4-.011,17.02-8.2,17.031-18.3v-32.5a3.54,3.54,0,0,0-3.407-3.662Zm0,0" transform="translate(0 -2.315)" fill="#fff"/>
        <path id="Path_1143" data-name="Path 1143" d="M624.953-222.2a14.588,14.588,0,0,0-21.677,0L542.5-156.9a3.739,3.739,0,0,0-.873,1.611l-7.992,31a3.85,3.85,0,0,0,.873,3.566,3.25,3.25,0,0,0,3.319.939l28.85-8.589a3.365,3.365,0,0,0,1.5-.94l60.769-65.3a17.372,17.372,0,0,0,0-23.294Zm-75.026,67.68,49.735-53.445,16.04,17.236L565.965-137.28Zm-3.2,6.909,12.814,13.773-17.725,5.277Zm77.411-52.175-3.612,3.881L604.479-213.14l3.614-3.882a8.1,8.1,0,0,1,12.042,0l4,4.295a9.655,9.655,0,0,1,0,12.944Zm0,0" transform="translate(-9.185 0)" fill="#fff"/>
      </g>
    </g>
  </g>
</svg>
