<svg width="10" height="11" viewBox="0 0 10 11" fill="none" xmlns="http://www.w3.org/2000/svg">
<g clip-path="url(#clip0_584_3215)">
<path d="M5.00004 0.5C3.89534 0.501213 2.83624 0.94059 2.0551 1.72173C1.27396 2.50287 0.834587 3.56197 0.833374 4.66667C0.833374 6.8675 4.33337 9.88875 4.73087 10.2262L5.00004 10.4537L5.26921 10.2262C5.66671 9.88875 9.16671 6.8675 9.16671 4.66667C9.16549 3.56197 8.72612 2.50287 7.94498 1.72173C7.16384 0.94059 6.10474 0.501213 5.00004 0.5V0.5ZM5.00004 6.75C4.588 6.75 4.18521 6.62781 3.8426 6.39889C3.5 6.16998 3.23297 5.8446 3.07529 5.46392C2.91761 5.08324 2.87635 4.66436 2.95674 4.26023C3.03712 3.8561 3.23554 3.48489 3.5269 3.19353C3.81826 2.90217 4.18948 2.70375 4.5936 2.62336C4.99773 2.54298 5.41662 2.58423 5.7973 2.74192C6.17798 2.8996 6.50335 3.16663 6.73227 3.50923C6.96119 3.85183 7.08337 4.25462 7.08337 4.66667C7.08271 5.219 6.86301 5.74852 6.47245 6.13907C6.08189 6.52963 5.55237 6.74934 5.00004 6.75Z" fill="#B4BECB"/>
<path d="M5 5.91675C5.69036 5.91675 6.25 5.3571 6.25 4.66675C6.25 3.97639 5.69036 3.41675 5 3.41675C4.30964 3.41675 3.75 3.97639 3.75 4.66675C3.75 5.3571 4.30964 5.91675 5 5.91675Z" fill="#B4BECB"/>
</g>
<defs>
<clipPath id="clip0_584_3215">
<rect width="10" height="10" fill="white" transform="translate(0 0.5)"/>
</clipPath>
</defs>
</svg>
