<svg width="15" height="20" viewBox="0 0 15 20" fill="none" xmlns="http://www.w3.org/2000/svg">
<path d="M7.8206 9.16262V2.71286C7.8206 1.98558 7.22729 1.37314 6.50002 1.39228C5.79189 1.40185 5.22729 1.98558 5.22729 2.69372V9.14348" stroke="white" stroke-miterlimit="10" stroke-linecap="round"/>
<path d="M2.64354 9.16265V6.23442C2.64354 5.67939 2.19378 5.22963 1.63876 5.22963C1.08373 5.22963 0.633972 5.67939 0.633972 6.23442V14.043C0.911484 18.0622 3.38038 18.5981 5.75359 18.5981C7.71531 18.5981 9.48565 17.622 10.3565 16.0622C10.4713 15.8803 10.7679 15.4019 11.1316 14.8373C11.6388 14.0335 12.1077 13.3158 12.433 12.8086C12.8732 12.1196 13.3421 11.4593 13.8301 10.8181C13.9545 10.6555 14.0502 10.5311 14.1077 10.4736C14.2512 10.311 14.3469 10.1196 14.3756 9.89949C14.4809 9.13394 13.5718 8.57891 12.8349 8.83729C12.7392 8.87556 12.6435 8.91384 12.567 8.98083C12.1651 9.27748 10.9976 10.4832 10.5478 11.2775C10.433 11.4784 10.1268 11.3923 10.1268 11.1626V11.1435V4.80858C10.1268 4.16743 9.60048 3.62198 8.95933 3.64111C8.33732 3.65068 7.83014 4.16743 7.83014 4.78944V9.15308" stroke="white" stroke-miterlimit="10" stroke-linecap="round"/>
<path d="M5.22731 9.13395V4.29184C5.22731 3.60285 4.68186 3.02868 4.00243 2.99998C3.2943 2.98084 2.66272 3.555 2.66272 4.26313V9.16266" stroke="white" stroke-miterlimit="10" stroke-linecap="round"/>
</svg>
