<svg width="28" height="20" viewBox="0 0 28 20" fill="none" xmlns="http://www.w3.org/2000/svg">
<path d="M13.8791 8.98323C14.7675 8.98323 15.6359 8.71978 16.3746 8.22619C17.1132 7.73261 17.6889 7.03106 18.0289 6.21027C18.3688 5.38948 18.4577 4.48632 18.2843 3.61501C18.1109 2.7437 17.683 1.94337 17.0548 1.31524C16.4265 0.687116 15.6261 0.259404 14.7548 0.0861964C13.8834 -0.0870109 12.9803 0.00206751 12.1596 0.342166C11.3388 0.682265 10.6374 1.25811 10.144 1.99687C9.65055 2.73563 9.38727 3.60413 9.38745 4.49252C9.3889 5.68325 9.86261 6.82478 10.7047 7.66666C11.5467 8.50854 12.6883 8.98203 13.8791 8.98323ZM13.8791 1.81901C14.4078 1.81901 14.9247 1.97581 15.3644 2.26958C15.804 2.56335 16.1467 2.98089 16.3491 3.46941C16.5514 3.95794 16.6044 4.49549 16.5012 5.0141C16.3981 5.53271 16.1434 6.00909 15.7695 6.38299C15.3956 6.75688 14.9193 7.01151 14.4006 7.11467C13.882 7.21783 13.3445 7.16488 12.856 6.96253C12.3674 6.76018 11.9499 6.41751 11.6561 5.97785C11.3623 5.53819 11.2056 5.0213 11.2056 4.49252C11.2065 3.78376 11.4885 3.1043 11.9897 2.60313C12.4908 2.10195 13.1703 1.81997 13.8791 1.81901Z" fill="#78829D"/>
<path d="M5.39409 11.6231C6.0773 11.6231 6.74517 11.4205 7.31324 11.041C7.88131 10.6614 8.32407 10.1219 8.58552 9.49068C8.84698 8.85948 8.91539 8.16491 8.7821 7.49483C8.64881 6.82474 8.31981 6.20923 7.83671 5.72612C7.3536 5.24302 6.73809 4.91402 6.068 4.78073C5.39792 4.64744 4.70336 4.71585 4.07215 4.97731C3.44094 5.23876 2.90144 5.68152 2.52187 6.24959C2.14229 6.81766 1.9397 7.48553 1.9397 8.16875C1.9397 9.08491 2.30364 9.96354 2.95146 10.6114C3.59929 11.2592 4.47792 11.6231 5.39409 11.6231ZM5.39409 6.53246C5.71771 6.53246 6.03407 6.62842 6.30316 6.80822C6.57225 6.98802 6.78197 7.24357 6.90582 7.54257C7.02967 7.84156 7.06207 8.17056 6.99893 8.48797C6.9358 8.80538 6.77996 9.09694 6.55112 9.32578C6.32228 9.55462 6.03072 9.71046 5.71331 9.77359C5.3959 9.83673 5.0669 9.80433 4.7679 9.68048C4.46891 9.55663 4.21336 9.34691 4.03356 9.07782C3.85376 8.80873 3.7578 8.49237 3.7578 8.16875C3.7578 7.73477 3.93019 7.31858 4.23705 7.01171C4.54392 6.70485 4.96011 6.53246 5.39409 6.53246Z" fill="#03B3FF"/>
<path d="M22.3633 11.6231C23.0465 11.6231 23.7144 11.4205 24.2825 11.041C24.8506 10.6614 25.2933 10.1219 25.5548 9.49068C25.8162 8.85948 25.8846 8.16491 25.7513 7.49483C25.618 6.82474 25.289 6.20923 24.8059 5.72612C24.3228 5.24302 23.7073 4.91402 23.0372 4.78073C22.3672 4.64744 21.6726 4.71585 21.0414 4.97731C20.4102 5.23876 19.8707 5.68152 19.4911 6.24959C19.1115 6.81766 18.9089 7.48553 18.9089 8.16875C18.9089 9.08491 19.2729 9.96354 19.9207 10.6114C20.5685 11.2592 21.4472 11.6231 22.3633 11.6231ZM22.3633 6.53246C22.687 6.53246 23.0033 6.62842 23.2724 6.80822C23.5415 6.98802 23.7512 7.24357 23.8751 7.54257C23.9989 7.84156 24.0313 8.17056 23.9682 8.48797C23.905 8.80538 23.7492 9.09694 23.5204 9.32578C23.2915 9.55462 23 9.71046 22.6825 9.77359C22.3651 9.83673 22.0361 9.80433 21.7371 9.68048C21.4382 9.55663 21.1826 9.34691 21.0028 9.07782C20.823 8.80873 20.727 8.49237 20.727 8.16875C20.727 7.73477 20.8994 7.31858 21.2063 7.01171C21.5132 6.70485 21.9294 6.53246 22.3633 6.53246Z" fill="#03B3FF"/>
<path d="M22.4842 13.4467C21.6872 13.4519 20.9042 13.656 20.2061 14.0403C19.5424 12.9895 18.6275 12.1205 17.5441 11.5115C16.4606 10.9026 15.2427 10.5729 14 10.5522C12.7573 10.5729 11.5394 10.9026 10.4559 11.5115C9.37248 12.1205 8.45765 12.9895 7.79393 14.0403C7.09577 13.656 6.31277 13.4519 5.51585 13.4467C4.08582 13.5164 2.74147 14.1491 1.77629 15.2066C0.811113 16.2641 0.303498 17.6605 0.364265 19.0909C0.364265 19.332 0.460039 19.5633 0.630519 19.7337C0.800999 19.9042 1.03222 20 1.27331 20C1.51441 20 1.74563 19.9042 1.91611 19.7337C2.08659 19.5633 2.18236 19.332 2.18236 19.0909C2.12278 18.1429 2.43932 17.2095 3.06333 16.4933C3.68735 15.777 4.56854 15.3356 5.51585 15.2648C6.0182 15.2686 6.5114 15.3997 6.94942 15.6456C6.52099 16.7253 6.30166 17.8766 6.30308 19.0382C6.30308 19.2793 6.39886 19.5105 6.56934 19.681C6.73982 19.8515 6.97104 19.9473 7.21213 19.9473C7.45323 19.9473 7.68445 19.8515 7.85493 19.681C8.02541 19.5105 8.12118 19.2793 8.12118 19.0382C8.12118 15.3611 10.7574 12.3703 14 12.3703C17.2426 12.3703 19.8788 15.3611 19.8788 19.0382C19.8788 19.2793 19.9746 19.5105 20.1451 19.681C20.3156 19.8515 20.5468 19.9473 20.7879 19.9473C21.029 19.9473 21.2602 19.8515 21.4307 19.681C21.6012 19.5105 21.6969 19.2793 21.6969 19.0382C21.6984 17.8766 21.479 16.7253 21.0506 15.6456C21.4886 15.3997 21.9818 15.2686 22.4842 15.2648C23.4315 15.3356 24.3127 15.777 24.9367 16.4933C25.5607 17.2095 25.8772 18.1429 25.8177 19.0909C25.8177 19.332 25.9134 19.5633 26.0839 19.7337C26.2544 19.9042 26.4856 20 26.7267 20C26.9678 20 27.199 19.9042 27.3695 19.7337C27.54 19.5633 27.6357 19.332 27.6357 19.0909C27.6965 17.6605 27.1889 16.2641 26.2237 15.2066C25.2585 14.1491 23.9142 13.5164 22.4842 13.4467Z" fill="#78829D"/>
<path d="M13.8791 8.98323C14.7675 8.98323 15.6359 8.71978 16.3746 8.22619C17.1132 7.73261 17.6889 7.03106 18.0289 6.21027C18.3688 5.38948 18.4577 4.48632 18.2843 3.61501C18.1109 2.7437 17.683 1.94337 17.0548 1.31524C16.4265 0.687116 15.6261 0.259404 14.7548 0.0861964C13.8834 -0.0870109 12.9803 0.00206751 12.1596 0.342166C11.3388 0.682265 10.6374 1.25811 10.144 1.99687C9.65055 2.73563 9.38727 3.60413 9.38745 4.49252C9.3889 5.68325 9.86261 6.82478 10.7047 7.66666C11.5467 8.50854 12.6883 8.98203 13.8791 8.98323ZM13.8791 1.81901C14.4078 1.81901 14.9247 1.97581 15.3644 2.26958C15.804 2.56335 16.1467 2.98089 16.3491 3.46941C16.5514 3.95794 16.6044 4.49549 16.5012 5.0141C16.3981 5.53271 16.1434 6.00909 15.7695 6.38299C15.3956 6.75688 14.9193 7.01151 14.4006 7.11467C13.882 7.21783 13.3445 7.16488 12.856 6.96253C12.3674 6.76018 11.9499 6.41751 11.6561 5.97785C11.3623 5.53819 11.2056 5.0213 11.2056 4.49252C11.2065 3.78376 11.4885 3.1043 11.9897 2.60313C12.4908 2.10195 13.1703 1.81997 13.8791 1.81901Z" fill="#B4BECB"/>
<path d="M5.39409 11.6231C6.0773 11.6231 6.74517 11.4205 7.31324 11.041C7.88131 10.6614 8.32407 10.1219 8.58552 9.49068C8.84698 8.85948 8.91539 8.16491 8.7821 7.49483C8.64881 6.82474 8.31981 6.20923 7.83671 5.72612C7.3536 5.24302 6.73809 4.91402 6.068 4.78073C5.39792 4.64744 4.70336 4.71585 4.07215 4.97731C3.44094 5.23876 2.90144 5.68152 2.52187 6.24959C2.14229 6.81766 1.9397 7.48553 1.9397 8.16875C1.9397 9.08491 2.30364 9.96354 2.95146 10.6114C3.59929 11.2592 4.47792 11.6231 5.39409 11.6231ZM5.39409 6.53246C5.71771 6.53246 6.03407 6.62842 6.30316 6.80822C6.57225 6.98802 6.78197 7.24357 6.90582 7.54257C7.02967 7.84156 7.06207 8.17056 6.99893 8.48797C6.9358 8.80538 6.77996 9.09694 6.55112 9.32578C6.32228 9.55462 6.03072 9.71046 5.71331 9.77359C5.3959 9.83673 5.0669 9.80433 4.7679 9.68048C4.46891 9.55663 4.21336 9.34691 4.03356 9.07782C3.85376 8.80873 3.7578 8.49237 3.7578 8.16875C3.7578 7.73477 3.93019 7.31858 4.23705 7.01171C4.54392 6.70485 4.96011 6.53246 5.39409 6.53246Z" fill="#B4BECB"/>
<path d="M22.3633 11.6231C23.0465 11.6231 23.7144 11.4205 24.2825 11.041C24.8506 10.6614 25.2933 10.1219 25.5548 9.49068C25.8162 8.85948 25.8846 8.16491 25.7513 7.49483C25.618 6.82474 25.289 6.20923 24.8059 5.72612C24.3228 5.24302 23.7073 4.91402 23.0372 4.78073C22.3672 4.64744 21.6726 4.71585 21.0414 4.97731C20.4102 5.23876 19.8707 5.68152 19.4911 6.24959C19.1115 6.81766 18.9089 7.48553 18.9089 8.16875C18.9089 9.08491 19.2729 9.96354 19.9207 10.6114C20.5685 11.2592 21.4472 11.6231 22.3633 11.6231ZM22.3633 6.53246C22.687 6.53246 23.0033 6.62842 23.2724 6.80822C23.5415 6.98802 23.7512 7.24357 23.8751 7.54257C23.9989 7.84156 24.0313 8.17056 23.9682 8.48797C23.905 8.80538 23.7492 9.09694 23.5204 9.32578C23.2915 9.55462 23 9.71046 22.6825 9.77359C22.3651 9.83673 22.0361 9.80433 21.7371 9.68048C21.4382 9.55663 21.1826 9.34691 21.0028 9.07782C20.823 8.80873 20.727 8.49237 20.727 8.16875C20.727 7.73477 20.8994 7.31858 21.2063 7.01171C21.5132 6.70485 21.9294 6.53246 22.3633 6.53246Z" fill="#B4BECB"/>
<path d="M22.4842 13.4467C21.6872 13.4519 20.9042 13.656 20.2061 14.0403C19.5424 12.9895 18.6275 12.1205 17.5441 11.5115C16.4606 10.9026 15.2427 10.5729 14 10.5522C12.7573 10.5729 11.5394 10.9026 10.4559 11.5115C9.37248 12.1205 8.45765 12.9895 7.79393 14.0403C7.09577 13.656 6.31277 13.4519 5.51585 13.4467C4.08582 13.5164 2.74147 14.1491 1.77629 15.2066C0.811113 16.2641 0.303498 17.6605 0.364265 19.0909C0.364265 19.332 0.460039 19.5633 0.630519 19.7337C0.800999 19.9042 1.03222 20 1.27331 20C1.51441 20 1.74563 19.9042 1.91611 19.7337C2.08659 19.5633 2.18236 19.332 2.18236 19.0909C2.12278 18.1429 2.43932 17.2095 3.06333 16.4933C3.68735 15.777 4.56854 15.3356 5.51585 15.2648C6.0182 15.2686 6.5114 15.3997 6.94942 15.6456C6.52099 16.7253 6.30166 17.8766 6.30308 19.0382C6.30308 19.2793 6.39886 19.5105 6.56934 19.681C6.73982 19.8515 6.97104 19.9473 7.21213 19.9473C7.45323 19.9473 7.68445 19.8515 7.85493 19.681C8.02541 19.5105 8.12118 19.2793 8.12118 19.0382C8.12118 15.3611 10.7574 12.3703 14 12.3703C17.2426 12.3703 19.8788 15.3611 19.8788 19.0382C19.8788 19.2793 19.9746 19.5105 20.1451 19.681C20.3156 19.8515 20.5468 19.9473 20.7879 19.9473C21.029 19.9473 21.2602 19.8515 21.4307 19.681C21.6012 19.5105 21.6969 19.2793 21.6969 19.0382C21.6984 17.8766 21.479 16.7253 21.0506 15.6456C21.4886 15.3997 21.9818 15.2686 22.4842 15.2648C23.4315 15.3356 24.3127 15.777 24.9367 16.4933C25.5607 17.2095 25.8772 18.1429 25.8177 19.0909C25.8177 19.332 25.9134 19.5633 26.0839 19.7337C26.2544 19.9042 26.4856 20 26.7267 20C26.9678 20 27.199 19.9042 27.3695 19.7337C27.54 19.5633 27.6357 19.332 27.6357 19.0909C27.6965 17.6605 27.1889 16.2641 26.2237 15.2066C25.2585 14.1491 23.9142 13.5164 22.4842 13.4467Z" fill="#B4BECB"/>
</svg>
