<svg width="18" height="18" viewBox="0 0 18 18" fill="none" xmlns="http://www.w3.org/2000/svg">
<g clip-path="url(#clip0_402_6658)">
<path d="M14.871 2.56027L13.1895 0.878766C12.9115 0.599248 12.5809 0.377635 12.2167 0.226755C11.8525 0.0758755 11.462 -0.00127589 11.0677 -0.000233722H4.5C3.90326 -0.000233722 3.33097 0.236819 2.90901 0.658776C2.48705 1.08073 2.25 1.65303 2.25 2.24977V17.9998H15.75V4.68127C15.748 3.88604 15.4321 3.12376 14.871 2.56027ZM13.8105 3.62077C13.8482 3.66169 13.8835 3.70476 13.9163 3.74977H12V1.83352C12.045 1.86625 12.0881 1.90156 12.129 1.93927L13.8105 3.62077ZM3.75 16.4998V2.24977C3.75 2.05085 3.82902 1.86009 3.96967 1.71944C4.11032 1.57878 4.30109 1.49977 4.5 1.49977H10.5V5.24977H14.25V16.4998H3.75ZM5.25 11.9998H12.75V7.49977H5.25V11.9998ZM6.75 8.99977H11.25V10.4998H6.75V8.99977ZM5.25 13.4998H12.75V14.9998H5.25V13.4998Z" fill="#03B3FF"/>
</g>
<defs>
<clipPath id="clip0_402_6658">
<rect width="18" height="18" fill="white"/>
</clipPath>
</defs>
</svg>
