<svg width="18" height="18" viewBox="0 0 18 18" fill="none" xmlns="http://www.w3.org/2000/svg">
<g clip-path="url(#clip0_402_6667)">
<path d="M15.7498 12.0952V11.25C15.7498 10.6532 15.5127 10.0809 15.0908 9.65898C14.6688 9.23702 14.0965 8.99997 13.4998 8.99997H9.74976V7.42497C10.6603 7.23911 11.4694 6.72178 12.0202 5.97328C12.5709 5.22477 12.8242 4.29843 12.7308 3.37382C12.6374 2.44922 12.204 1.59224 11.5146 0.969015C10.8253 0.345792 9.92907 0.000732422 8.99976 0.000732422C8.07046 0.000732422 7.17425 0.345792 6.4849 0.969015C5.79555 1.59224 5.36216 2.44922 5.26875 3.37382C5.17535 4.29843 5.42859 5.22477 5.97937 5.97328C6.53015 6.72178 7.33923 7.23911 8.24976 7.42497V8.99997H4.49976C3.90303 8.99997 3.33073 9.23702 2.90877 9.65898C2.48682 10.0809 2.24976 10.6532 2.24976 11.25V12.0952C1.54277 12.2778 0.926621 12.7119 0.516812 13.3162C0.107003 13.9206 -0.0683318 14.6536 0.0236741 15.378C0.11568 16.1023 0.468709 16.7683 1.01659 17.251C1.56447 17.7337 2.26958 18 2.99976 18C3.72994 18 4.43506 17.7337 4.98294 17.251C5.53082 16.7683 5.88385 16.1023 5.97585 15.378C6.06786 14.6536 5.89252 13.9206 5.48271 13.3162C5.07291 12.7119 4.45676 12.2778 3.74976 12.0952V11.25C3.74976 11.0511 3.82878 10.8603 3.96943 10.7196C4.11009 10.579 4.30085 10.5 4.49976 10.5H8.24976V12.0952C7.54277 12.2778 6.92662 12.7119 6.51681 13.3162C6.107 13.9206 5.93167 14.6536 6.02367 15.378C6.11568 16.1023 6.46871 16.7683 7.01659 17.251C7.56447 17.7337 8.26958 18 8.99976 18C9.72994 18 10.4351 17.7337 10.9829 17.251C11.5308 16.7683 11.8838 16.1023 11.9759 15.378C12.0679 14.6536 11.8925 13.9206 11.4827 13.3162C11.0729 12.7119 10.4568 12.2778 9.74976 12.0952V10.5H13.4998C13.6987 10.5 13.8894 10.579 14.0301 10.7196C14.1707 10.8603 14.2498 11.0511 14.2498 11.25V12.0952C13.5428 12.2778 12.9266 12.7119 12.5168 13.3162C12.107 13.9206 11.9317 14.6536 12.0237 15.378C12.1157 16.1023 12.4687 16.7683 13.0166 17.251C13.5645 17.7337 14.2696 18 14.9998 18C15.7299 18 16.4351 17.7337 16.9829 17.251C17.5308 16.7683 17.8838 16.1023 17.9759 15.378C18.0679 14.6536 17.8925 13.9206 17.4827 13.3162C17.0729 12.7119 16.4568 12.2778 15.7498 12.0952ZM6.74976 3.74997C6.74976 3.30496 6.88172 2.86994 7.12896 2.49993C7.37619 2.12992 7.72759 1.84154 8.13873 1.67124C8.54986 1.50094 9.00226 1.45638 9.43872 1.5432C9.87517 1.63002 10.2761 1.84431 10.5908 2.15898C10.9054 2.47364 11.1197 2.87456 11.2065 3.31101C11.2933 3.74747 11.2488 4.19987 11.0785 4.611C10.9082 5.02214 10.6198 5.37354 10.2498 5.62077C9.87979 5.86801 9.44477 5.99997 8.99976 5.99997C8.40303 5.99997 7.83073 5.76291 7.40877 5.34096C6.98682 4.919 6.74976 4.3467 6.74976 3.74997ZM4.49976 15C4.49976 15.2966 4.41179 15.5866 4.24697 15.8333C4.08215 16.08 3.84788 16.2723 3.57379 16.3858C3.2997 16.4993 2.9981 16.529 2.70713 16.4711C2.41616 16.4133 2.14888 16.2704 1.9391 16.0606C1.72932 15.8508 1.58646 15.5836 1.52859 15.2926C1.47071 15.0016 1.50041 14.7 1.61394 14.4259C1.72748 14.1519 1.91973 13.9176 2.16641 13.7528C2.41308 13.5879 2.70309 13.5 2.99976 13.5C3.39759 13.5 3.77912 13.658 4.06042 13.9393C4.34173 14.2206 4.49976 14.6021 4.49976 15ZM10.4998 15C10.4998 15.2966 10.4118 15.5866 10.247 15.8333C10.0821 16.08 9.84788 16.2723 9.57379 16.3858C9.2997 16.4993 8.9981 16.529 8.70713 16.4711C8.41616 16.4133 8.14888 16.2704 7.9391 16.0606C7.72932 15.8508 7.58646 15.5836 7.52859 15.2926C7.47071 15.0016 7.50041 14.7 7.61394 14.4259C7.72748 14.1519 7.91973 13.9176 8.16641 13.7528C8.41308 13.5879 8.70309 13.5 8.99976 13.5C9.39759 13.5 9.77912 13.658 10.0604 13.9393C10.3417 14.2206 10.4998 14.6021 10.4998 15ZM14.9998 16.5C14.7031 16.5 14.4131 16.412 14.1664 16.2472C13.9197 16.0823 13.7275 15.8481 13.6139 15.574C13.5004 15.2999 13.4707 14.9983 13.5286 14.7073C13.5865 14.4164 13.7293 14.1491 13.9391 13.9393C14.1489 13.7295 14.4162 13.5867 14.7071 13.5288C14.9981 13.4709 15.2997 13.5006 15.5738 13.6141C15.8479 13.7277 16.0821 13.9199 16.247 14.1666C16.4118 14.4133 16.4998 14.7033 16.4998 15C16.4998 15.3978 16.3417 15.7793 16.0604 16.0606C15.7791 16.3419 15.3976 16.5 14.9998 16.5Z" fill="#03B3FF"/>
</g>
<defs>
<clipPath id="clip0_402_6667">
<rect width="18" height="18" fill="white"/>
</clipPath>
</defs>
</svg>
