<svg width="18" height="18" viewBox="0 0 18 18" fill="none" xmlns="http://www.w3.org/2000/svg">
<path fill-rule="evenodd" clip-rule="evenodd" d="M8.72438 0.230189C8.91554 0.401385 9.02478 0.645867 9.02478 0.902483V8.97521H17.0975C17.3541 8.97521 17.5986 9.08446 17.7698 9.27562C17.941 9.46678 18.0227 9.72179 17.9945 9.97685C17.4956 14.4902 13.6707 18 9.02478 18C4.04053 18 0 13.9595 0 8.97521C0 4.3293 3.50985 0.504388 8.02314 0.00546847C8.27821 -0.0227271 8.53321 0.0589932 8.72438 0.230189ZM7.21983 1.98266C4.10616 2.78385 1.80496 5.6113 1.80496 8.97521C1.80496 12.9626 5.03738 16.195 9.02478 16.195C12.3887 16.195 15.2161 13.8938 16.0173 10.7802H8.1223C7.62388 10.7802 7.21983 10.3761 7.21983 9.87769V1.98266ZM11.2111 0.578402C11.4503 0.40925 11.7567 0.366728 12.033 0.464356C14.5978 1.37091 16.6291 3.40218 17.5357 5.96702C17.6334 6.24323 17.5909 6.54965 17.4217 6.78885C17.2526 7.02805 16.9778 7.17026 16.6849 7.17026H11.7322C11.2338 7.17026 10.8297 6.76621 10.8297 6.26778V1.31525C10.8297 1.02229 10.9719 0.747555 11.2111 0.578402ZM12.6347 2.72127V5.3653H15.2788C14.6447 4.26945 13.7306 3.35535 12.6347 2.72127Z" fill="#03B3FF"/>
</svg>
