<svg
    width="30"
    height="30"
    viewBox="0 0 40 40"
    fill="none"
    xmlns="http://www.w3.org/2000/svg"
    >
    <!-- <path fill-rule="evenodd" clip-rule="evenodd" d="M38.6851 23.7174C38.9229 22.5151 39.0476 21.2721 39.0476 20C39.0476 18.7279 38.9229 17.4849 38.6851 16.2826L39.6193 16.0978C39.8692 17.3606 40 18.6655 40 20C40 21.3345 39.8692 22.6394 39.6193 23.9022L38.6851 23.7174ZM35.8393 9.41684L36.6307 8.88702C35.1709 6.7064 33.2936 4.82915 31.113 3.36926L30.5832 4.16066C32.6603 5.55129 34.4487 7.33967 35.8393 9.41684ZM23.7174 1.31493L23.9022 0.38066C22.6394 0.130833 21.3345 0 20 0C18.6655 0 17.3606 0.130833 16.0978 0.38066L16.2826 1.31493C17.4849 1.07708 18.7279 0.952381 20 0.952381C21.2721 0.952381 22.5151 1.07708 23.7174 1.31493ZM9.41684 4.16066L8.88702 3.36926C6.7064 4.82915 4.82915 6.7064 3.36926 8.88702L4.16066 9.41685C5.55129 7.33968 7.33967 5.55129 9.41684 4.16066ZM1.31493 16.2826C1.07708 17.4849 0.952381 18.7279 0.952381 20C0.952381 21.2721 1.07708 22.5151 1.31493 23.7174L0.38066 23.9022C0.130833 22.6394 0 21.3345 0 20C0 18.6655 0.130833 17.3606 0.38066 16.0978L1.31493 16.2826ZM4.16066 30.5832L3.36926 31.113C4.82915 33.2936 6.7064 35.1709 8.88702 36.6307L9.41685 35.8393C7.33968 34.4487 5.55129 32.6603 4.16066 30.5832ZM16.2826 38.6851L16.0978 39.6193C17.3606 39.8692 18.6655 40 20 40C21.3345 40 22.6394 39.8692 23.9022 39.6193L23.7174 38.6851C22.5151 38.9229 21.2721 39.0476 20 39.0476C18.7279 39.0476 17.4849 38.9229 16.2826 38.6851ZM30.5832 35.8393L31.113 36.6307C33.2936 35.1709 35.1709 33.2936 36.6307 31.113L35.8393 30.5832C34.4487 32.6603 32.6603 34.4487 30.5832 35.8393Z" fill="#B5B5C3"/> -->
    <g clip-path="url(#clip0_1949_67520)">
        <path
        fill-rule="evenodd"
        clip-rule="evenodd"
        d="M28.685 11.898C26.0972 13.26 23.5084 12.4299 20.9196 11.5998C18.1601 10.715 15.4006 9.83014 12.6422 11.6L12.125 17.6431L12.6422 24.7049C12.8075 24.5988 12.9727 24.5023 13.138 24.4148C15.7318 23.0405 18.3255 23.8724 20.9193 24.7044C23.6223 25.5713 26.3254 26.4383 29.0284 24.8083C29.1309 24.7438 29.1933 24.6314 29.194 24.5104V12.2C29.1949 12.0782 29.131 11.965 29.0262 11.9028C28.9214 11.8407 28.7915 11.8388 28.685 11.898ZM28.6784 12.2C28.6784 12.1988 28.6783 12.1975 28.6784 12.1962L29.194 12.2H28.6784ZM28.6783 12.478C25.9771 13.7665 23.2819 12.9005 20.8188 12.1091C20.7143 12.0755 20.6102 12.0421 20.5066 12.0089C17.8874 11.1715 15.5082 10.5047 13.1338 11.9029L12.6422 17.6462L13.0971 23.8569C15.8143 22.5264 18.5175 23.3928 20.9928 24.1864C23.7362 25.0661 26.2065 25.8564 28.6783 24.4164V12.478Z"
        fill="#FF0000"
        />
        <path
        fill-rule="evenodd"
        clip-rule="evenodd"
        d="M13.1715 10.9958V31.1724C13.1068 31.6824 12.6488 32.0488 12.137 32C11.8721 32.005 11.6135 31.9188 11.4046 31.7558C11.2197 31.618 11.1084 31.4029 11.1025 31.1724V10.9958C11.7285 11.4151 12.5456 11.4151 13.1715 10.9958V10.9958Z"
        fill="#FF0000"
        />
        <path
        fill-rule="evenodd"
        clip-rule="evenodd"
        d="M13.9995 9.8621C13.9995 10.8905 13.1659 11.7242 12.1375 11.7242C11.1091 11.7242 10.2754 10.8905 10.2754 9.8621C10.2754 8.83371 11.1091 8.00003 12.1375 8.00003C12.6322 7.99704 13.1076 8.19226 13.4574 8.54212C13.8073 8.89197 14.0025 9.36734 13.9995 9.8621Z"
        fill="#FF0000"
        />
        <path
        d="M17.75 11.0001C14.15 10.4001 12.75 11.7501 12.5 12.5001V24.5001L14 23.7501C15.2 23.1501 17.5 23.5001 18.5 23.7501L20.75 24.5001C21.35 24.5001 23.5 25.0001 24.5 25.2501C25.7 25.8501 28 25.0001 29 24.5001V12.5001L27.5 12.5001C25.7 13.1001 24.25 12.7501 23.75 12.5001C23.15 12.5001 19.5 11.5001 17.75 11.0001Z"
        fill="#FF0000"
        stroke="#5B8FB9"
        stroke-width="0.1"
        />
    </g>
    <defs>
        <clipPath id="clip0_1949_67520">
        <rect
            width="24"
            height="24"
            fill="grey"
            transform="translate(8 8)"
        />
        </clipPath>
    </defs>
</svg>