<svg width="24" height="24" viewBox="0 0 24 24" fill="none" xmlns="http://www.w3.org/2000/svg">
<path d="M17.9042 2.67182V0.867476C17.9042 0.393256 17.511 0 17.0367 0C16.5625 0 16.1693 0.393256 16.1693 0.867476V2.60243H8.65114V0.867476C8.65114 0.393256 8.25789 0 7.78367 0C7.30945 0 6.91619 0.393256 6.91619 0.867476V2.67182C3.79328 2.96098 2.27809 4.82316 2.04676 7.58752C2.02363 7.92295 2.30122 8.20054 2.62508 8.20054H22.1953C22.5308 8.20054 22.8084 7.91138 22.7737 7.58752C22.5423 4.82316 21.0271 2.96098 17.9042 2.67182Z" fill="#7E8299"/>
<path opacity="0.4" d="M21.6628 9.93555C22.2989 9.93555 22.8194 10.456 22.8194 11.0922V18.2171C22.8194 21.687 21.0845 24.0002 17.0363 24.0002H7.78317C3.73495 24.0002 2 21.687 2 18.2171V11.0922C2 10.456 2.52049 9.93555 3.15663 9.93555H21.6628Z" fill="#7E8299"/>
<path d="M8.36171 15.9038C8.06099 15.9038 7.76026 15.7766 7.5405 15.5684C7.33231 15.3486 7.20508 15.0479 7.20508 14.7472C7.20508 14.4464 7.33231 14.1457 7.5405 13.926C7.86436 13.6021 8.37328 13.498 8.80124 13.683C8.9516 13.7409 9.07883 13.8219 9.18292 13.926C9.39112 14.1457 9.51835 14.4464 9.51835 14.7472C9.51835 15.0479 9.39112 15.3486 9.18292 15.5684C8.96316 15.7766 8.66244 15.9038 8.36171 15.9038Z" fill="#7E8299"/>
<path d="M12.4096 15.9038C12.1088 15.9038 11.8081 15.7766 11.5884 15.5684C11.3802 15.3486 11.2529 15.0479 11.2529 14.7472C11.2529 14.4464 11.3802 14.1457 11.5884 13.926C11.6925 13.8219 11.8197 13.7409 11.97 13.683C12.398 13.498 12.9069 13.6021 13.2308 13.926C13.439 14.1457 13.5662 14.4464 13.5662 14.7472C13.5662 15.0479 13.439 15.3486 13.2308 15.5684C13.1729 15.6146 13.1151 15.6609 13.0573 15.7071C12.9879 15.7534 12.9185 15.7881 12.8491 15.8113C12.7797 15.846 12.7103 15.8691 12.6409 15.8807C12.5599 15.8922 12.4905 15.9038 12.4096 15.9038Z" fill="#7E8299"/>
<path d="M16.4579 15.9031C16.1572 15.9031 15.8565 15.7759 15.6367 15.5677C15.4285 15.3479 15.3013 15.0472 15.3013 14.7465C15.3013 14.4458 15.4285 14.1451 15.6367 13.9253C15.7524 13.8212 15.868 13.7402 16.0184 13.6824C16.2266 13.5898 16.4579 13.5667 16.6892 13.613C16.7586 13.6245 16.828 13.6477 16.8974 13.6824C16.9668 13.7055 17.0362 13.7402 17.1056 13.7865C17.1635 13.8328 17.2213 13.879 17.2791 13.9253C17.4873 14.1451 17.6145 14.4458 17.6145 14.7465C17.6145 15.0472 17.4873 15.3479 17.2791 15.5677C17.2213 15.614 17.1635 15.6602 17.1056 15.7065C17.0362 15.7527 16.9668 15.7875 16.8974 15.8106C16.828 15.8453 16.7586 15.8684 16.6892 15.88C16.6083 15.8916 16.5273 15.9031 16.4579 15.9031Z" fill="#7E8299"/>
<path d="M8.36171 19.952C8.21135 19.952 8.06099 19.9173 7.92219 19.8594C7.77183 19.8016 7.65617 19.7206 7.5405 19.6165C7.33231 19.3968 7.20508 19.096 7.20508 18.7953C7.20508 18.4946 7.33231 18.1939 7.5405 17.9741C7.65617 17.87 7.77183 17.789 7.92219 17.7312C8.13038 17.6387 8.36171 17.6155 8.59304 17.6618C8.66244 17.6734 8.73184 17.6965 8.80124 17.7312C8.87063 17.7543 8.94003 17.7891 9.00943 17.8353C9.06726 17.8816 9.12509 17.9279 9.18292 17.9741C9.39112 18.1939 9.51835 18.4946 9.51835 18.7953C9.51835 19.096 9.39112 19.3968 9.18292 19.6165C9.12509 19.6628 9.06726 19.7206 9.00943 19.7553C8.94003 19.8016 8.87063 19.8363 8.80124 19.8594C8.73184 19.8941 8.66244 19.9173 8.59304 19.9288C8.51208 19.9404 8.44268 19.952 8.36171 19.952Z" fill="#7E8299"/>
<path d="M12.4096 19.9521C12.1088 19.9521 11.8081 19.8249 11.5884 19.6167C11.3802 19.3969 11.2529 19.0962 11.2529 18.7955C11.2529 18.4948 11.3802 18.194 11.5884 17.9743C12.0163 17.5463 12.8028 17.5463 13.2308 17.9743C13.439 18.194 13.5662 18.4948 13.5662 18.7955C13.5662 19.0962 13.439 19.3969 13.2308 19.6167C13.011 19.8249 12.7103 19.9521 12.4096 19.9521Z" fill="#7E8299"/>
<path d="M16.4579 19.9521C16.1572 19.9521 15.8565 19.8249 15.6367 19.6167C15.4285 19.3969 15.3013 19.0962 15.3013 18.7955C15.3013 18.4948 15.4285 18.194 15.6367 17.9743C16.0646 17.5463 16.8512 17.5463 17.2791 17.9743C17.4873 18.194 17.6145 18.4948 17.6145 18.7955C17.6145 19.0962 17.4873 19.3969 17.2791 19.6167C17.0594 19.8249 16.7586 19.9521 16.4579 19.9521Z" fill="#7E8299"/>
</svg>
