<svg width="30" height="30" viewBox="0 0 16 16" fill="none" xmlns="http://www.w3.org/2000/svg">
<g clip-path="url(#clip0_1310_39271)">
<path fill-rule="evenodd" clip-rule="evenodd" d="M13.79 2.59864C12.0648 3.50665 10.3389 2.95325 8.61304 2.39985C6.77341 1.80997 4.93375 1.22009 3.09483 2.40002L2.75 6.42871L3.09483 11.1366C3.205 11.0659 3.31516 11.0015 3.42533 10.9432C5.1545 10.027 6.88367 10.5816 8.61284 11.1362C10.4149 11.7142 12.2169 12.2922 14.019 11.2055C14.0873 11.1625 14.1289 11.0876 14.1293 11.0069V2.80002C14.1299 2.71879 14.0873 2.64336 14.0175 2.6019C13.9476 2.56044 13.861 2.5592 13.79 2.59864ZM13.7856 2.80002C13.7856 2.79917 13.7856 2.79832 13.7856 2.79747L14.1293 2.80002H13.7856ZM13.7856 2.98535C11.9847 3.84435 10.1879 3.26701 8.54587 2.73938C8.47621 2.717 8.40682 2.6947 8.33773 2.67261C6.5916 2.11433 5.00549 1.6698 3.42255 2.60193L3.09483 6.43082L3.39809 10.5713C5.20954 9.68429 7.01169 10.2618 8.66185 10.791C10.4908 11.3774 12.1377 11.9043 13.7856 10.9443V2.98535Z" fill="#B5B5C3"/>
<path fill-rule="evenodd" clip-rule="evenodd" d="M3.44816 1.99725V15.4483C3.405 15.7883 3.09967 16.0325 2.7585 16C2.5819 16.0033 2.40952 15.9459 2.27023 15.8373C2.14697 15.7454 2.07274 15.602 2.06885 15.4483V1.99725C2.48613 2.27678 3.03087 2.27678 3.44816 1.99725Z" fill="#B5B5C3"/>
<path fill-rule="evenodd" clip-rule="evenodd" d="M3.99985 1.2414C3.99985 1.927 3.44406 2.48278 2.75847 2.48278C2.07287 2.48278 1.51709 1.927 1.51709 1.2414C1.51709 0.555807 2.07287 2.2649e-05 2.75847 2.2649e-05C3.08831 -0.00197444 3.40522 0.128172 3.63846 0.36141C3.8717 0.594648 4.00185 0.911559 3.99985 1.2414Z" fill="#B5B5C3"/>
<path d="M6.5 2.00001C4.1 1.60001 3.16667 2.50001 3 3.00001V11L4 10.5C4.8 10.1 6.33333 10.3333 7 10.5L8.5 11C8.9 11 10.3333 11.3333 11 11.5C11.8 11.9 13.3333 11.3333 14 11V3.00001L13 3C11.8 3.4 10.8333 3.16667 10.5 3C10.1 3 7.66667 2.33334 6.5 2.00001Z" fill="#B5B5C3"/>
</g>
<defs>
<clipPath id="clip0_1310_39271">
<rect width="16" height="16" fill="white"/>
</clipPath>
</defs>
</svg>
