<svg width="14" height="14" viewBox="0 0 14 14" fill="none" xmlns="http://www.w3.org/2000/svg">
<g clip-path="url(#clip0_513_8883)">
<path d="M7.01917 11.0897C7.2873 11.0902 7.55288 11.0377 7.80065 10.9351C8.04842 10.8326 8.27348 10.6822 8.46292 10.4924L10.749 8.20633L9.51175 6.96908L7.88892 8.59192L7.87492 0H6.12492L6.13892 8.58025L4.52659 6.96908L3.28934 8.20633L5.57542 10.4924C5.76482 10.6822 5.98988 10.8327 6.23765 10.9352C6.48543 11.0377 6.75103 11.0903 7.01917 11.0897Z" fill="#005AE0"/>
<path d="M12.25 9.33301V12.2497H1.75V9.33301H0V12.2497C0 12.7138 0.184374 13.1589 0.512563 13.4871C0.840752 13.8153 1.28587 13.9997 1.75 13.9997H12.25C12.7141 13.9997 13.1592 13.8153 13.4874 13.4871C13.8156 13.1589 14 12.7138 14 12.2497V9.33301H12.25Z" fill="#005AE0"/>
</g>
<defs>
<clipPath id="clip0_513_8883">
<rect width="14" height="14" fill="white"/>
</clipPath>
</defs>
</svg>
