<svg width="20" height="20" viewBox="0 0 20 20" fill="none" xmlns="http://www.w3.org/2000/svg">
<g clip-path="url(#clip0_276_63)">
<path d="M10 20C8.02219 20 6.08879 19.4135 4.4443 18.3147C2.79981 17.2159 1.51809 15.6541 0.761209 13.8268C0.00433286 11.9996 -0.193701 9.98891 0.192152 8.0491C0.578004 6.10929 1.53041 4.32746 2.92894 2.92894C4.32746 1.53041 6.10929 0.578004 8.0491 0.192152C9.98891 -0.193701 11.9996 0.00433286 13.8268 0.761209C15.6541 1.51809 17.2159 2.79981 18.3147 4.4443C19.4135 6.08879 20 8.02219 20 10C19.9971 12.6513 18.9426 15.1932 17.0679 17.0679C15.1932 18.9426 12.6513 19.9971 10 20ZM10 1.66667C8.35183 1.66667 6.74066 2.15541 5.37025 3.07109C3.99984 3.98677 2.93174 5.28826 2.30101 6.81098C1.67028 8.33369 1.50525 10.0092 1.82679 11.6258C2.14834 13.2423 2.94201 14.7271 4.10745 15.8926C5.27289 17.058 6.75774 17.8517 8.37425 18.1732C9.99076 18.4948 11.6663 18.3297 13.189 17.699C14.7118 17.0683 16.0132 16.0002 16.9289 14.6298C17.8446 13.2593 18.3333 11.6482 18.3333 10C18.3309 7.79061 17.4522 5.67241 15.8899 4.11013C14.3276 2.54785 12.2094 1.6691 10 1.66667Z" fill="#78829D"/>
<path d="M11.6666 15.8335H9.99992V10.0002H8.33325V8.3335H9.99992C10.4419 8.3335 10.8659 8.50909 11.1784 8.82165C11.491 9.13421 11.6666 9.55814 11.6666 10.0002V15.8335Z" fill="#03B3FF"/>
<path d="M10 6.6665C10.6904 6.6665 11.25 6.10686 11.25 5.4165C11.25 4.72615 10.6904 4.1665 10 4.1665C9.30964 4.1665 8.75 4.72615 8.75 5.4165C8.75 6.10686 9.30964 6.6665 10 6.6665Z" fill="#03B3FF"/>
</g>
<g clip-path="url(#clip1_276_63)">
<path d="M10 20C8.02219 20 6.08879 19.4135 4.4443 18.3147C2.79981 17.2159 1.51809 15.6541 0.761209 13.8268C0.00433286 11.9996 -0.193701 9.98891 0.192152 8.0491C0.578004 6.10929 1.53041 4.32746 2.92894 2.92894C4.32746 1.53041 6.10929 0.578004 8.0491 0.192152C9.98891 -0.193701 11.9996 0.00433286 13.8268 0.761209C15.6541 1.51809 17.2159 2.79981 18.3147 4.4443C19.4135 6.08879 20 8.02219 20 10C19.9971 12.6513 18.9426 15.1932 17.0679 17.0679C15.1932 18.9426 12.6513 19.9971 10 20ZM10 1.66667C8.35183 1.66667 6.74066 2.15541 5.37025 3.07109C3.99984 3.98677 2.93174 5.28826 2.30101 6.81098C1.67028 8.33369 1.50525 10.0092 1.82679 11.6258C2.14834 13.2423 2.94201 14.7271 4.10745 15.8926C5.27289 17.058 6.75774 17.8517 8.37425 18.1732C9.99076 18.4948 11.6663 18.3297 13.189 17.699C14.7118 17.0683 16.0132 16.0002 16.9289 14.6298C17.8446 13.2593 18.3333 11.6482 18.3333 10C18.3309 7.79061 17.4522 5.67241 15.8899 4.11013C14.3276 2.54785 12.2094 1.6691 10 1.66667Z" fill="#B4BECB"/>
<path d="M11.6666 15.8335H9.99992V10.0002H8.33325V8.3335H9.99992C10.4419 8.3335 10.8659 8.50909 11.1784 8.82165C11.491 9.13421 11.6666 9.55814 11.6666 10.0002V15.8335Z" fill="#B4BECB"/>
<path d="M10 6.6665C10.6904 6.6665 11.25 6.10686 11.25 5.4165C11.25 4.72615 10.6904 4.1665 10 4.1665C9.30964 4.1665 8.75 4.72615 8.75 5.4165C8.75 6.10686 9.30964 6.6665 10 6.6665Z" fill="#B4BECB"/>
</g>
<defs>
<clipPath id="clip0_276_63">
<rect width="20" height="20" fill="white"/>
</clipPath>
<clipPath id="clip1_276_63">
<rect width="20" height="20" fill="white"/>
</clipPath>
</defs>
</svg>
