<svg width="20" height="20" viewBox="0 0 20 20" fill="none" xmlns="http://www.w3.org/2000/svg">
<path d="M17.4421 8.375C16.8671 7.9 16.0755 7.75833 15.3838 7.99167C15.2005 8.05833 15.0255 8.15 14.8755 8.25833C14.6005 8.45833 14.1005 8.94167 13.6005 9.5V4.49167C13.6005 3.93333 13.3755 3.39167 12.9755 3C12.5755 2.60833 12.0421 2.4 11.5088 2.40833C11.3921 2.40833 11.2755 2.425 11.1588 2.45V2.23333C11.1588 1.63333 10.9088 1.05 10.4838 0.625C10.0588 0.216667 9.5088 0 8.9088 0C7.85046 0.0166667 6.96713 0.8 6.77546 1.80833C6.61713 1.76667 6.45046 1.73333 6.2838 1.725C5.6838 1.7 5.09213 1.94167 4.6588 2.35833C4.2338 2.775 4.00046 3.31667 4.00046 3.9V4.125C3.91713 4.11667 3.8338 4.1 3.75046 4.1C2.70046 4.1 1.85046 4.95 1.85046 6V14.375C2.20046 19.4167 5.60046 20 8.12546 20C10.5171 20 12.6755 18.8 13.7338 16.9083C13.8505 16.7167 14.1755 16.2167 14.5505 15.6167L15.9338 13.4583C16.3921 12.7417 16.8755 12.05 17.3838 11.4C17.4921 11.2583 17.5838 11.1417 17.6338 11.0917C17.9088 10.7917 18.0838 10.425 18.1338 10.025C18.2171 9.4 17.9671 8.79167 17.4588 8.375H17.4421ZM16.3921 9.96667C16.3338 10.0333 16.2088 10.1833 16.0588 10.3833C15.5255 11.075 15.0088 11.8083 14.5255 12.5667L13.1421 14.725C12.7588 15.3333 12.4338 15.8417 12.2921 16.0667C11.5088 17.4667 9.9088 18.3417 8.11713 18.3417C5.44213 18.3417 3.74213 17.6583 3.5088 14.325V6C3.5088 5.86667 3.61713 5.76667 3.74213 5.76667C3.86713 5.76667 3.9838 5.875 3.9838 6V9.10833C3.9838 9.15833 4.00046 9.20833 4.01713 9.25833C4.02546 9.31667 4.0338 9.38333 4.05046 9.43333C4.06713 9.475 4.1088 9.51667 4.1338 9.55C4.16713 9.6 4.19213 9.65 4.2338 9.69167C4.27546 9.73333 4.32546 9.75 4.36713 9.78333C4.4088 9.81667 4.45046 9.85 4.50046 9.86667C4.55046 9.89167 4.6088 9.89167 4.66713 9.9C4.71713 9.90833 4.76713 9.93333 4.82546 9.93333C4.94213 9.93333 5.05046 9.90833 5.15046 9.86667C5.19213 9.85 5.22546 9.81667 5.2588 9.79167C5.3088 9.75833 5.36713 9.73333 5.41713 9.68333C5.45046 9.65 5.47546 9.6 5.50046 9.55833C5.5338 9.50833 5.57546 9.475 5.59213 9.41667C5.6088 9.375 5.6088 9.31667 5.62546 9.275C5.64213 9.21667 5.6588 9.15833 5.6588 9.1L5.67546 3.88333C5.67546 3.71667 5.77546 3.59167 5.8338 3.54167C5.94213 3.43333 6.09213 3.375 6.25046 3.375C6.52546 3.375 6.74213 3.625 6.74213 3.91667V9.06667C6.74213 9.525 7.12546 9.9 7.5838 9.9C7.5838 9.9 7.64213 9.88333 7.67546 9.88333C7.7588 9.875 7.8338 9.86667 7.9088 9.83333C7.91713 9.83333 7.92546 9.81667 7.9338 9.81667C8.21713 9.68333 8.41713 9.4 8.41713 9.06667V2.21667C8.41713 1.91667 8.6588 1.675 8.95046 1.66667C9.10046 1.66667 9.26713 1.76667 9.3338 1.825C9.44213 1.93333 9.5088 2.09167 9.5088 2.24167V4.425C9.5088 4.425 9.5088 4.45833 9.5088 4.46667V9.10833C9.5088 9.18333 9.5338 9.24167 9.55046 9.30833C9.5588 9.35 9.5588 9.39167 9.57546 9.43333C9.60046 9.48333 9.6338 9.525 9.66713 9.56667C9.70046 9.60833 9.71713 9.65833 9.75046 9.7C9.79213 9.74167 9.85046 9.76667 9.90046 9.8C9.94213 9.825 9.96713 9.85833 10.0088 9.875C10.1088 9.91667 10.2171 9.94167 10.3338 9.94167C10.3921 9.94167 10.4505 9.91667 10.5005 9.90833C10.5505 9.9 10.6088 9.9 10.6588 9.875C10.7088 9.85 10.7505 9.80833 10.8005 9.78333C10.8421 9.75833 10.8921 9.73333 10.9255 9.7C10.9588 9.66667 10.9838 9.61667 11.0088 9.575C11.0421 9.525 11.0838 9.48333 11.1005 9.43333C11.1171 9.38333 11.1171 9.33333 11.1338 9.275C11.1421 9.21667 11.1671 9.16667 11.1671 9.10833V4.44167C11.1755 4.24167 11.3421 4.075 11.5421 4.075C11.6838 4.075 11.7671 4.14167 11.8088 4.18333C11.8921 4.26667 11.9338 4.375 11.9338 4.48333V11.25C11.9338 11.7417 12.2588 12.15 12.7338 12.2833C13.2088 12.4083 13.6838 12.2083 13.9338 11.7917L13.9671 11.7333C14.4088 10.9917 15.5421 9.825 15.9338 9.55833C16.0755 9.50833 16.2671 9.55 16.3921 9.65C16.4838 9.725 16.4755 9.775 16.4755 9.79167C16.4755 9.85 16.4421 9.9 16.4005 9.95L16.3921 9.96667Z" fill="#78829D"/>
</svg>
