<svg width="30" height="40" viewBox="0 0 30 40" fill="none" xmlns="http://www.w3.org/2000/svg">
<path d="M5.24039 0H18.6276L29.9606 11.8176V34.799C29.9606 37.6688 27.6294 40 24.7519 40H5.24044C2.37063 40 0.0394287 37.6688 0.0394287 34.799V5.20101C0.0393782 2.3312 2.37058 0 5.24039 0Z" fill="#189EFF"/>
<path opacity="0.302" fill-rule="evenodd" clip-rule="evenodd" d="M18.6123 0V11.7254H29.9606L18.6123 0Z" fill="white"/>
<path d="M20.2741 20.8118H9.72596C9.24123 20.8118 8.84116 20.4194 8.84116 19.9347C8.84116 19.45 9.24123 19.0576 9.72596 19.0576H20.2741C20.7589 19.0576 21.1512 19.45 21.1512 19.9347C21.1512 20.4194 20.7589 20.8118 20.2741 20.8118ZM16.7581 31.3599H9.72596C9.24123 31.3599 8.84116 30.9675 8.84116 30.4829C8.84116 29.9982 9.24123 29.6058 9.72596 29.6058H16.7581C17.2428 29.6058 17.6351 29.9982 17.6351 30.4829C17.6351 30.9675 17.2428 31.3599 16.7581 31.3599ZM20.2741 27.8439H9.72596C9.24123 27.8439 8.84116 27.4515 8.84116 26.9668C8.84116 26.4821 9.24123 26.0897 9.72596 26.0897H20.2741C20.7589 26.0897 21.1512 26.4821 21.1512 26.9668C21.1512 27.4515 20.7589 27.8439 20.2741 27.8439ZM20.2741 24.3278H9.72596C9.24123 24.3278 8.84116 23.9354 8.84116 23.4507C8.84116 22.9661 9.24123 22.5737 9.72596 22.5737H20.2741C20.7589 22.5737 21.1512 22.9661 21.1512 23.4507C21.1512 23.9354 20.7589 24.3278 20.2741 24.3278Z" fill="white"/>
</svg>
