<svg width="32" height="30" viewBox="0 0 32 30" fill="none" xmlns="http://www.w3.org/2000/svg">
<path d="M24.96 2.55319H23.6833V1.2766C23.6833 0.63396 23.0444 0 22.4 0C21.7557 0 21.12 0.63396 21.12 1.2766V2.55319H16V1.2766C16 0.63396 15.3644 0 14.72 0C14.0757 0 13.44 0.63396 13.44 1.2766V2.55319H8.32V1.2766C8.32 0.63396 7.68435 0 7.04 0C6.39565 0 5.76 0.63396 5.76 1.2766V2.55319H5.12C2.5468 2.55319 0 4.46852 0 7.03488V25.5319C0 28.0983 1.9068 30 4.48 30H15.36C16.0044 30 16.64 29.366 16.64 28.7234C16.64 28.0808 16.0044 27.4601 15.36 27.4601H4.48C3.1934 27.4601 2.56 26.8151 2.56 25.5319V7.03488C2.56 5.7517 3.8334 5.10638 5.12 5.10638H5.76V5.74468C5.76 6.38732 6.39565 7.02128 7.04 7.02128C7.68435 7.02128 8.32 6.38732 8.32 5.74468V5.10638H13.44V5.74468C13.44 6.38732 14.0757 7.02128 14.72 7.02128C15.3644 7.02128 16 6.38732 16 5.74468V5.10638H21.12V5.74468C21.12 6.38732 21.7557 7.02128 22.4 7.02128C23.0444 7.02128 23.6833 6.38732 23.6833 5.74468V5.10638H24.96C26.2466 5.10638 27.5333 5.6982 27.5333 6.98138V13.4043C27.5333 14.0469 28.1557 14.6809 28.8 14.6809C29.4444 14.6809 30.08 14.0469 30.08 13.4043V7.02128C30.08 4.45492 27.5332 2.55319 24.96 2.55319Z" fill="white"/>
<path d="M25.6002 17.2324C22.0712 17.2324 19.2002 20.0958 19.2002 23.6154C19.2002 27.135 22.0712 29.9984 25.6002 29.9984C29.1292 29.9984 32.0002 27.135 32.0002 23.6154C32.0002 20.0958 29.1292 17.2324 25.6002 17.2324ZM25.6002 27.8883C23.2379 27.8883 21.3159 25.9715 21.3159 23.6154C21.3159 21.2593 23.2379 19.3425 25.6002 19.3425C27.9625 19.3425 29.8845 21.2593 29.8845 23.6154C29.8845 25.9715 27.9625 27.8883 25.6002 27.8883Z" fill="white"/>
<path d="M26.565 23.8501H26.2311V22.9675C26.2311 22.5033 25.8989 22.127 25.4891 22.127C25.0793 22.127 24.7471 22.5033 24.7471 22.9675V24.6907C24.7471 25.1549 25.0793 25.5312 25.4891 25.5312H26.565C26.9749 25.5312 27.3071 25.1549 27.3071 24.6907C27.3071 24.2264 26.9749 23.8501 26.565 23.8501Z" fill="white"/>
</svg>
