<svg width="22" height="30" viewBox="0 0 22 30" fill="none" xmlns="http://www.w3.org/2000/svg">
<path d="M5.7025 23.4305C5.69302 23.441 5.68355 23.4515 5.67424 23.462C5.10348 24.0997 5.541 25.1368 6.37959 25.1368H15.6216C16.4602 25.1368 16.8977 24.0997 16.3271 23.462C16.3177 23.4515 16.3083 23.441 16.2988 23.4305C15.4407 22.4775 12.2108 19.6466 12.1692 19.6095C11.4967 19.0104 10.5046 19.0104 9.83213 19.6095C9.79055 19.6465 6.56061 22.4775 5.7025 23.4305Z" fill="white"/>
<path d="M15.4072 14.1154C15.6761 13.8724 15.9836 13.6039 16.3092 13.3196C18.7108 11.2226 22 8.35072 22 5.33203V3.51562C22 1.57711 20.4817 0 18.6154 0H3.38462C1.51834 0 0 1.57711 0 3.51562V5.33203C0 8.35072 3.28917 11.2226 5.69084 13.3197C6.01644 13.604 6.32393 13.8725 6.59284 14.1155C6.84832 14.3464 6.99487 14.6688 6.99487 15.0001C6.99487 15.3313 6.84837 15.6537 6.59284 15.8846C6.32393 16.1276 6.01644 16.3961 5.69084 16.6804C3.28917 18.7774 0 21.6493 0 24.668V26.4844C0 28.4229 1.51834 30 3.38462 30H18.6154C20.4817 30 22 28.4229 22 26.4844C22 25.8371 21.4949 25.3125 20.8718 25.3125C20.2487 25.3125 19.7436 25.8371 19.7436 26.4844C19.7436 27.1305 19.2375 27.6562 18.6154 27.6562H3.38462C2.76252 27.6562 2.25641 27.1305 2.25641 26.4844V24.668C2.25641 22.7409 5.3152 20.0702 7.14272 18.4744C7.47583 18.1836 7.79048 17.9088 8.07383 17.6528C8.82211 16.9765 9.25128 16.0096 9.25128 15C9.25128 13.9903 8.82211 13.0234 8.07389 12.3472C7.79054 12.0912 7.47588 11.8164 7.14278 11.5256C5.3152 9.92982 2.25641 7.25906 2.25641 5.33203V3.51562C2.25641 2.86945 2.76252 2.34375 3.38462 2.34375H18.6154C19.2375 2.34375 19.7436 2.86945 19.7436 3.51562V5.33203C19.7436 7.25906 16.6848 9.92982 14.8573 11.5256C14.5242 11.8164 14.2095 12.0911 13.9262 12.3472C13.1779 13.0234 12.7487 13.9903 12.7487 15C12.7487 16.0097 13.1779 16.9766 13.9261 17.6528C14.2214 17.9195 14.5504 18.2056 14.8987 18.5085C15.9964 19.4628 17.2404 20.5444 18.2223 21.6952C18.6356 22.1796 19.3486 22.2242 19.8149 21.7949C20.2812 21.3657 20.3242 20.6251 19.911 20.1407C18.8176 18.8592 17.4477 17.6682 16.347 16.7112C16.0072 16.4157 15.6862 16.1367 15.4072 15.8845C15.1517 15.6536 15.0051 15.3312 15.0051 15C15.0051 14.6688 15.1517 14.3463 15.4072 14.1154Z" fill="white"/>
<path d="M12.2198 10.8536C12.2402 10.8352 13.0277 10.1325 13.9245 9.30838C14.6273 8.6625 14.1946 7.44141 13.2629 7.44141H8.85149C7.91976 7.44141 7.4871 8.6625 8.18991 9.30838C9.08667 10.1326 9.87421 10.8352 9.89457 10.8536C10.5637 11.4602 11.5507 11.4602 12.2198 10.8536Z" fill="white"/>
</svg>
