<svg width="27" height="30" viewBox="0 0 27 30" fill="none" xmlns="http://www.w3.org/2000/svg">
<path d="M1.89082 5.78841C2.14915 5.78841 2.40903 5.69923 2.62291 5.51647L5.72941 2.86294C6.21467 2.44844 6.27999 1.70946 5.87534 1.21241C5.47068 0.715359 4.74923 0.648386 4.26397 1.06294L1.15747 3.71659C0.672208 4.13108 0.606882 4.87007 1.01154 5.36712C1.23784 5.64497 1.5631 5.78841 1.89082 5.78841Z" fill="white"/>
<path d="M21.2698 2.86293L24.3763 5.51647C24.5902 5.69922 24.85 5.7884 25.1084 5.7884C25.4361 5.7884 25.7614 5.64496 25.9876 5.36705C26.3923 4.87 26.327 4.13102 25.8417 3.71653L22.7352 1.06293C22.25 0.64844 21.5285 0.715295 21.1238 1.2124C20.7192 1.70946 20.7845 2.44838 21.2698 2.86293Z" fill="white"/>
<path d="M23.046 6.39387C20.7541 4.04631 17.7831 2.6475 14.5869 2.38834V1.17188C14.5869 0.524648 14.0747 0 13.4429 0C12.811 0 12.2988 0.524648 12.2988 1.17188V2.39842C9.14612 2.68137 6.21866 4.07438 3.95414 6.39393C1.40429 9.00562 0 12.4782 0 16.1718C0 19.8653 1.40429 23.3379 3.95409 25.9496C4.19057 26.1919 4.43437 26.4239 4.68481 26.6457L3.76486 28.2285C3.44166 28.7846 3.61973 29.5039 4.16265 29.8349C4.34616 29.9468 4.54775 30 4.74682 30C5.13683 30 5.51695 29.7956 5.73095 29.4274L6.54381 28.0288C8.62259 29.3135 11.0098 29.9998 13.5 29.9998C15.9803 29.9998 18.3607 29.3213 20.4549 28.0266L21.2691 29.4274C21.4831 29.7956 21.8631 29.9999 22.2532 29.9999C22.4522 29.9999 22.6539 29.9467 22.8374 29.8349C23.3803 29.5038 23.5583 28.7846 23.2351 28.2285L21.8051 25.7679C21.6399 25.4837 21.3652 25.2842 21.0486 25.2187C20.7322 25.1532 20.4033 25.2277 20.1433 25.4239C18.2086 26.8842 15.9114 27.6561 13.5 27.6561C7.31777 27.6561 2.28815 22.5043 2.28815 16.1718C2.28815 9.83924 7.31777 4.6875 13.5 4.6875C19.6822 4.6875 24.7119 9.8393 24.7119 16.1718C24.7119 18.1061 24.2339 20.0179 23.3298 21.7004C23.0251 22.2674 23.2269 22.9801 23.7804 23.2921C24.3339 23.6041 25.0297 23.3975 25.3343 22.8305C26.424 20.8026 27 18.5 27 16.1718C27 12.4782 25.5958 9.00562 23.046 6.39387Z" fill="white"/>
<path d="M13.4439 7.55859C12.812 7.55859 12.2998 8.08324 12.2998 8.73047V16.1718C12.2998 16.4827 12.4203 16.7807 12.6349 17.0005L15.8708 20.315C16.0942 20.5438 16.3869 20.6582 16.6798 20.6582C16.9726 20.6582 17.2654 20.5438 17.4887 20.315C17.9356 19.8574 17.9356 19.1154 17.4887 18.6577L14.588 15.6864V8.73047C14.588 8.08324 14.0757 7.55859 13.4439 7.55859Z" fill="white"/>
</svg>
