<svg width="30" height="30" viewBox="0 0 30 30" fill="none" xmlns="http://www.w3.org/2000/svg">
<path d="M20.866 29.6599C21.0833 29.8863 21.368 29.9995 21.6529 29.9995C21.9377 29.9995 22.2225 29.8863 22.4397 29.6599L25.2695 26.711L28.0993 29.6599C28.3166 29.8863 28.6013 29.9995 28.8862 29.9995C29.171 29.9995 29.4557 29.8863 29.673 29.6599C30.1076 29.207 30.1076 28.4728 29.673 28.0199L26.8433 25.0711L29.673 22.1222C30.1076 21.6694 30.1076 20.9351 29.673 20.4823C29.2385 20.0294 28.5339 20.0294 28.0993 20.4823L25.2695 23.4311L22.4397 20.4823C22.0052 20.0294 21.3006 20.0294 20.866 20.4823C20.4314 20.9351 20.4314 21.6693 20.866 22.1222L23.6958 25.0711L20.866 28.0199C20.4314 28.4728 20.4314 29.207 20.866 29.6599Z" fill="white"/>
<path d="M23.7495 2.55314H22.4996V1.27657C22.4996 0.636102 21.8642 0 21.2496 0C20.635 0 19.9996 0.636102 19.9996 1.27657V2.55314H15.6247V1.27657C15.6247 0.636102 14.9893 0 14.3747 0C13.7601 0 13.1247 0.636102 13.1247 1.27657V2.55314H8.12484V1.27657C8.12484 0.636102 7.48947 0 6.87487 0C6.26026 0 5.62489 0.636102 5.62489 1.27657V2.55314H4.9999C2.54548 2.55314 0 4.46344 0 7.02114V24.8931C0 27.4508 1.94099 29.9994 4.39542 29.9994H16.2497C16.8643 29.9994 17.4997 29.3633 17.4997 28.7229C17.4997 28.0824 16.8643 27.4463 16.2497 27.4463H4.39542C3.1682 27.4463 2.49995 26.172 2.49995 24.8931V7.02114C2.49995 5.74229 3.77269 5.10628 4.9999 5.10628H5.62489V6.38286C5.62489 7.02332 6.26026 7.65943 6.87487 7.65943C7.48947 7.65943 8.12484 7.02332 8.12484 6.38286V5.10628H13.1247V6.38286C13.1247 7.02332 13.7601 7.65943 14.3747 7.65943C14.9893 7.65943 15.6247 7.02332 15.6247 6.38286V5.10628H19.9996V6.38286C19.9996 7.02332 20.635 7.65943 21.2496 7.65943C21.8642 7.65943 22.4996 7.02332 22.4996 6.38286V5.10628H23.7495C24.9768 5.10628 26.2624 5.74229 26.2624 7.02114V17.2337C26.2624 17.8742 26.8849 18.5103 27.4995 18.5103C28.1141 18.5103 28.7494 17.8742 28.7494 17.2337V7.02114C28.7494 4.46344 26.204 2.55314 23.7495 2.55314Z" fill="white"/>
</svg>
