<svg width="32" height="30" viewBox="0 0 32 30" fill="none" xmlns="http://www.w3.org/2000/svg">
<path fill-rule="evenodd" clip-rule="evenodd" d="M15.9988 10.1655C12.8023 10.1655 10.2109 12.8534 10.2109 16.1691C10.2109 19.4848 12.8023 22.1727 15.9988 22.1727C19.1954 22.1727 21.7867 19.4848 21.7867 16.1691C21.7867 12.8534 19.1954 10.1655 15.9988 10.1655ZM8.02344 16.1691C8.02344 11.6003 11.5941 7.89648 15.9988 7.89648C20.4035 7.89648 23.9742 11.6003 23.9742 16.1691C23.9742 20.7379 20.4035 24.4417 15.9988 24.4417C11.5941 24.4417 8.02344 20.7379 8.02344 16.1691Z" fill="#3E97FF"/>
<path fill-rule="evenodd" clip-rule="evenodd" d="M15.9985 12.8594C16.4818 12.8594 16.8735 13.2657 16.8735 13.767V15.2607H17.478C17.9613 15.2607 18.353 15.667 18.353 16.1683C18.353 16.6695 17.9613 17.0759 17.478 17.0759H15.9985C15.5153 17.0759 15.1235 16.6695 15.1235 16.1683V13.767C15.1235 13.2657 15.5153 12.8594 15.9985 12.8594Z" fill="#3E97FF"/>
<path fill-rule="evenodd" clip-rule="evenodd" d="M6.4834 0C7.17375 0 7.7334 0.580501 7.7334 1.29659V4.63458C7.7334 5.35066 7.17375 5.93116 6.4834 5.93116C5.79304 5.93116 5.2334 5.35066 5.2334 4.63458V1.29659C5.2334 0.580501 5.79304 0 6.4834 0Z" fill="#3E97FF"/>
<path fill-rule="evenodd" clip-rule="evenodd" d="M12.8286 0C13.519 0 14.0786 0.580501 14.0786 1.29659V4.63458C14.0786 5.35066 13.519 5.93116 12.8286 5.93116C12.1383 5.93116 11.5786 5.35066 11.5786 4.63458V1.29659C11.5786 0.580501 12.1383 0 12.8286 0Z" fill="#3E97FF"/>
<path fill-rule="evenodd" clip-rule="evenodd" d="M19.1729 0C19.8632 0 20.4229 0.580501 20.4229 1.29659V4.63458C20.4229 5.35066 19.8632 5.93116 19.1729 5.93116C18.4825 5.93116 17.9229 5.35066 17.9229 4.63458V1.29659C17.9229 0.580501 18.4825 0 19.1729 0Z" fill="#3E97FF"/>
<path fill-rule="evenodd" clip-rule="evenodd" d="M25.5181 0C26.2084 0 26.7681 0.580501 26.7681 1.29659V4.63458C26.7681 5.35066 26.2084 5.93116 25.5181 5.93116C24.8277 5.93116 24.2681 5.35066 24.2681 4.63458V1.29659C24.2681 0.580501 24.8277 0 25.5181 0Z" fill="#3E97FF"/>
<path fill-rule="evenodd" clip-rule="evenodd" d="M0 6.48712C0 3.62279 2.23858 1.30078 5 1.30078H27C29.7614 1.30078 32 3.62279 32 6.48712V18.3222C32 19.0382 31.4404 19.6187 30.75 19.6187C30.0596 19.6187 29.5 19.0382 29.5 18.3222V6.48712C29.5 5.05496 28.3807 3.89395 27 3.89395H5C3.61929 3.89395 2.5 5.05496 2.5 6.48712V24.813C2.5 26.2452 3.61929 27.4062 5 27.4062H27C28.3807 27.4062 29.5 26.2452 29.5 24.813V24.8051C29.5 24.089 30.0596 23.5085 30.75 23.5085C31.4404 23.5085 32 24.089 32 24.8051V24.813C32 27.6773 29.7614 29.9993 27 29.9993H5C2.23858 29.9993 0 27.6773 0 24.813V6.48712Z" fill="#3E97FF"/>
</svg>
