<svg width="30" height="30" viewBox="0 0 30 30" fill="none" xmlns="http://www.w3.org/2000/svg">
<g clip-path="url(#clip0_1794_60248)">
<path fill-rule="evenodd" clip-rule="evenodd" d="M0.117188 25.3125C0.117188 27.8366 2.16339 29.8828 4.6875 29.8828H14.5312C15.1137 29.8828 15.5859 29.4106 15.5859 28.8281C15.5859 28.2456 15.1137 27.7734 14.5312 27.7734H4.6875C3.32837 27.7734 2.22656 26.6716 2.22656 25.3125V7.03125C2.22656 5.67212 3.32837 4.57031 4.6875 4.57031H25.3125C26.6716 4.57031 27.7734 5.67212 27.7734 7.03125V15.3516C27.7734 15.9341 28.2456 16.4062 28.8281 16.4062C29.4106 16.4062 29.8828 15.9341 29.8828 15.3516V7.03125C29.8828 4.50714 27.8366 2.46094 25.3125 2.46094H4.6875C2.16339 2.46094 0.117188 4.50714 0.117188 7.03125V25.3125Z" fill="#F64D60"/>
<path fill-rule="evenodd" clip-rule="evenodd" d="M7.32422 6.91406C7.90671 6.91406 8.37891 6.44186 8.37891 5.85938V1.17188C8.37891 0.589387 7.90671 0.117188 7.32422 0.117188C6.74173 0.117188 6.26953 0.589387 6.26953 1.17188V5.85938C6.26953 6.44186 6.74173 6.91406 7.32422 6.91406Z" fill="#F64D60"/>
<path fill-rule="evenodd" clip-rule="evenodd" d="M22.6172 6.91406C23.1997 6.91406 23.6719 6.44186 23.6719 5.85938V1.17188C23.6719 0.589387 23.1997 0.117188 22.6172 0.117188C22.0347 0.117188 21.5625 0.589387 21.5625 1.17188V5.85938C21.5625 6.44186 22.0347 6.91406 22.6172 6.91406Z" fill="#F64D60"/>
<path fill-rule="evenodd" clip-rule="evenodd" d="M14.9414 6.91406C15.5239 6.91406 15.9961 6.44186 15.9961 5.85938V1.17188C15.9961 0.589387 15.5239 0.117188 14.9414 0.117188C14.3589 0.117188 13.8867 0.589387 13.8867 1.17188V5.85938C13.8867 6.44186 14.3589 6.91406 14.9414 6.91406Z" fill="#F64D60"/>
<path d="M30 23.75C30 27.1962 27.1962 30 23.75 30C20.3037 30 17.5 27.1962 17.5 23.75C17.5 20.3037 20.3037 17.5 23.75 17.5C27.1962 17.5 30 20.3037 30 23.75ZM28.1481 23.75C28.1481 21.3249 26.1751 19.3519 23.75 19.3519C21.3249 19.3519 19.3519 21.3249 19.3519 23.75C19.3519 26.1751 21.3249 28.1481 23.75 28.1481C26.1751 28.1481 28.1481 26.1751 28.1481 23.75ZM25.7011 21.7526C25.3394 21.3911 24.7531 21.3911 24.3916 21.7526L23.75 22.3942L23.1085 21.7527C22.7469 21.3912 22.1606 21.3912 21.799 21.7527C21.4374 22.1143 21.4374 22.7006 21.799 23.0622L22.4405 23.7037L21.799 24.3452C21.4374 24.7069 21.4374 25.2931 21.799 25.6547C21.9798 25.8355 22.2168 25.9259 22.4538 25.9259C22.6907 25.9259 22.9277 25.8355 23.1085 25.6547L23.75 25.0132L24.3915 25.6547C24.5723 25.8355 24.8093 25.9259 25.0463 25.9259C25.2833 25.9259 25.5202 25.8355 25.7011 25.6547C26.0626 25.2931 26.0626 24.7068 25.7011 24.3452L25.0595 23.7037L25.701 23.0622C26.0626 22.7006 26.0626 22.1143 25.7011 21.7526Z" fill="#F64D60"/>
</g>
<defs>
<clipPath id="clip0_1794_60248">
<rect width="30" height="30" fill="white"/>
</clipPath>
</defs>
</svg>
