<svg width="30" height="30" viewBox="0 0 30 30" fill="none" xmlns="http://www.w3.org/2000/svg">
<path fill-rule="evenodd" clip-rule="evenodd" d="M0 25.3125C0 27.9013 2.09867 30 4.6875 30H25.3125C27.9013 30 30 27.9013 30 25.3125C30 24.6653 29.4753 24.1406 28.8281 24.1406C28.1809 24.1406 27.6562 24.6653 27.6562 25.3125C27.6562 26.6069 26.6069 27.6563 25.3125 27.6563H4.6875C3.39309 27.6563 2.34375 26.6069 2.34375 25.3125V7.03125C2.34375 5.73684 3.39309 4.6875 4.6875 4.6875H25.3125C26.6069 4.6875 27.6562 5.73684 27.6562 7.03125V19.4531C27.6562 20.1003 28.1809 20.625 28.8281 20.625C29.4753 20.625 30 20.1003 30 19.4531V7.03125C30 4.44242 27.9013 2.34375 25.3125 2.34375H4.6875C2.09867 2.34375 0 4.44242 0 7.03125V25.3125Z" fill="#8A50FC"/>
<path fill-rule="evenodd" clip-rule="evenodd" d="M7.32422 7.03125C7.97143 7.03125 8.49609 6.50658 8.49609 5.85938V1.17188C8.49609 0.524667 7.97143 0 7.32422 0C6.67701 0 6.15234 0.524667 6.15234 1.17188V5.85938C6.15234 6.50658 6.67701 7.03125 7.32422 7.03125Z" fill="#8A50FC"/>
<path fill-rule="evenodd" clip-rule="evenodd" d="M22.6172 7.03125C23.2644 7.03125 23.7891 6.50658 23.7891 5.85938V1.17188C23.7891 0.524667 23.2644 0 22.6172 0C21.97 0 21.4453 0.524667 21.4453 1.17188V5.85938C21.4453 6.50658 21.97 7.03125 22.6172 7.03125Z" fill="#8A50FC"/>
<path fill-rule="evenodd" clip-rule="evenodd" d="M14.9414 7.03125C15.5886 7.03125 16.1133 6.50658 16.1133 5.85938V1.17188C16.1133 0.524667 15.5886 0 14.9414 0C14.2942 0 13.7695 0.524667 13.7695 1.17188V5.85938C13.7695 6.50658 14.2942 7.03125 14.9414 7.03125Z" fill="#8A50FC"/>
<path fill-rule="evenodd" clip-rule="evenodd" d="M14.9414 20.5078C15.5886 20.5078 16.1133 19.9831 16.1133 19.3359V11.7773C16.1133 11.1301 15.5886 10.6055 14.9414 10.6055C14.2942 10.6055 13.7695 11.1301 13.7695 11.7773V19.3359C13.7695 19.9831 14.2942 20.5078 14.9414 20.5078Z" fill="#8A50FC"/>
<path d="M16.1133 23.4375C16.1133 24.0847 15.5886 24.6094 14.9414 24.6094C14.2942 24.6094 13.7695 24.0847 13.7695 23.4375C13.7695 22.7903 14.2942 22.2656 14.9414 22.2656C15.5886 22.2656 16.1133 22.7903 16.1133 23.4375Z" fill="#8A50FC"/>
</svg>
