<svg width="30" height="30" viewBox="0 0 30 30" fill="none" xmlns="http://www.w3.org/2000/svg">
<path d="M28.8281 20.625C29.4754 20.625 30 20.1004 30 19.4531V7.03125C30 4.44656 27.8972 2.34375 25.3125 2.34375H23.7891V1.17188C23.7891 0.524648 23.2644 0 22.6172 0C21.97 0 21.4453 0.524648 21.4453 1.17188V2.34375H16.1133V1.17188C16.1133 0.524648 15.5886 0 14.9414 0C14.2942 0 13.7695 0.524648 13.7695 1.17188V2.34375H8.49609V1.17188C8.49609 0.524648 7.97145 0 7.32422 0C6.67699 0 6.15234 0.524648 6.15234 1.17188V2.34375H4.6875C2.10281 2.34375 0 4.44656 0 7.03125V25.3125C0 27.8972 2.10281 30 4.6875 30H25.3125C27.8972 30 30 27.8972 30 25.3125C30 24.6653 29.4754 24.1406 28.8281 24.1406C28.1809 24.1406 27.6562 24.6653 27.6562 25.3125C27.6562 26.6048 26.6048 27.6562 25.3125 27.6562H4.6875C3.39516 27.6562 2.34375 26.6048 2.34375 25.3125V7.03125C2.34375 5.73891 3.39516 4.6875 4.6875 4.6875H6.15234V5.85938C6.15234 6.5066 6.67699 7.03125 7.32422 7.03125C7.97145 7.03125 8.49609 6.5066 8.49609 5.85938V4.6875H13.7695V5.85938C13.7695 6.5066 14.2942 7.03125 14.9414 7.03125C15.5886 7.03125 16.1133 6.5066 16.1133 5.85938V4.6875H21.4453V5.85938C21.4453 6.5066 21.97 7.03125 22.6172 7.03125C23.2644 7.03125 23.7891 6.5066 23.7891 5.85938V4.6875H25.3125C26.6048 4.6875 27.6562 5.73891 27.6562 7.03125V19.4531C27.6562 20.1004 28.1809 20.625 28.8281 20.625Z" fill="#FEA703"/>
<path d="M10.5469 16.1719C9.89965 16.1719 9.375 16.6965 9.375 17.3438C9.375 17.991 9.89965 18.5156 10.5469 18.5156H19.3359C19.9832 18.5156 20.5078 17.991 20.5078 17.3438C20.5078 16.6965 19.9832 16.1719 19.3359 16.1719H10.5469Z" fill="#FEA703"/>
</svg>
