<svg width="27" height="30" viewBox="0 0 27 30" fill="none" xmlns="http://www.w3.org/2000/svg">
<path fill-rule="evenodd" clip-rule="evenodd" d="M9.96826 1.03308C9.96826 0.462524 10.444 0 11.0309 0H15.9693C16.5562 0 17.0319 0.462524 17.0319 1.03308C17.0319 1.60363 16.5562 2.06615 15.9693 2.06615H11.0309C10.444 2.06615 9.96826 1.60363 9.96826 1.03308Z" fill="#1BC4BD"/>
<path fill-rule="evenodd" clip-rule="evenodd" d="M13.5001 0.474609C14.087 0.474609 14.5627 0.937133 14.5627 1.50769V4.5186C14.5627 5.08915 14.087 5.55168 13.5001 5.55168C12.9132 5.55168 12.4375 5.08915 12.4375 4.5186V1.50769C12.4375 0.937133 12.9132 0.474609 13.5001 0.474609Z" fill="#1BC4BD"/>
<path fill-rule="evenodd" clip-rule="evenodd" d="M23.3271 4.93545C23.7409 5.33999 23.7391 5.9941 23.3229 6.39643L21.9237 7.74935C21.5076 8.15168 20.8348 8.14989 20.421 7.74534C20.0072 7.3408 20.009 6.68669 20.4251 6.28436L21.8243 4.93144C22.2404 4.52911 22.9132 4.5309 23.3271 4.93545Z" fill="#1BC4BD"/>
<path fill-rule="evenodd" clip-rule="evenodd" d="M3.67343 4.93545C4.08726 4.5309 4.76006 4.52911 5.17616 4.93144L6.57539 6.28436C6.9915 6.68669 6.99334 7.3408 6.57951 7.74534C6.16568 8.14989 5.49288 8.15168 5.07678 7.74935L3.67755 6.39643C3.26144 5.9941 3.2596 5.33999 3.67343 4.93545Z" fill="#1BC4BD"/>
<path fill-rule="evenodd" clip-rule="evenodd" d="M5.10059 16.8715C5.10059 12.3952 8.87707 8.77148 13.5001 8.77148C14.087 8.77148 14.5627 9.23401 14.5627 9.80456V15.8717H20.837C21.1197 15.8717 21.3907 15.9812 21.5901 16.176C21.7895 16.3708 21.9009 16.6348 21.8996 16.9096C21.8781 21.3684 18.1102 24.9715 13.5001 24.9715C8.87707 24.9715 5.10059 21.3478 5.10059 16.8715ZM12.4375 10.9241C9.47646 11.4117 7.22578 13.9009 7.22578 16.8715C7.22578 20.1886 10.0321 22.9054 13.5001 22.9054C16.5881 22.9054 19.1514 20.7515 19.6762 17.9378H13.5001C12.9133 17.9378 12.4375 17.4753 12.4375 16.9047V10.9241Z" fill="#1BC4BD"/>
<path fill-rule="evenodd" clip-rule="evenodd" d="M0 16.9064C0 9.66937 6.04962 3.81226 13.5 3.81226C20.9503 3.81226 27 9.66936 27 16.9064C27 19.4109 26.274 21.7539 25.0149 23.7447C24.7069 24.2316 24.0522 24.383 23.5527 24.0827C23.0532 23.7825 22.8979 23.1443 23.2059 22.6573C24.2646 20.9836 24.8748 19.0155 24.8748 16.9064C24.8748 10.8243 19.7876 5.884 13.5 5.884C7.21233 5.884 2.1252 10.8243 2.1252 16.9064C2.1252 22.9886 7.21239 27.9288 13.5 27.9288C15.5897 27.9288 17.5445 27.3838 19.2249 26.4333C19.7325 26.1462 20.3828 26.3146 20.6773 26.8095C20.9718 27.3043 20.799 27.9382 20.2914 28.2253C18.2953 29.3543 15.9737 30.0006 13.5 30.0006C6.04968 30.0006 0 24.1435 0 16.9064Z" fill="#1BC4BD"/>
</svg>
