<svg width="30" height="30" viewBox="0 0 30 30" fill="none" xmlns="http://www.w3.org/2000/svg">
<g clip-path="url(#clip0_1794_60312)">
<path fill-rule="evenodd" clip-rule="evenodd" d="M16.0175 28.8792C15.9222 28.2626 16.3449 27.6855 16.9615 27.5903C23.0664 26.6477 27.7406 21.3686 27.7406 14.9997C27.7406 7.96333 22.0365 2.25919 15 2.25919C8.55114 2.25919 3.21974 7.05156 2.37595 13.2688C2.29205 13.8871 1.72284 14.3202 1.10459 14.2363C0.486334 14.1524 0.0531635 13.5832 0.137072 12.965C1.13081 5.64274 7.40549 -0.00021553 15 -0.00021553C23.2843 -0.00021553 30 6.71549 30 14.9997C30 22.5003 24.4959 28.7131 17.3063 29.8233C16.6897 29.9185 16.1127 29.4958 16.0175 28.8792Z" fill="#F64D60"/>
<path fill-rule="evenodd" clip-rule="evenodd" d="M20.4377 20.5111C19.9935 20.9493 19.2783 20.9445 18.8401 20.5004L14.1957 15.7933C13.9871 15.5819 13.8702 15.2969 13.8702 14.9999V5.64844C13.8702 5.02452 14.376 4.51873 14.9999 4.51873C15.6238 4.51873 16.1296 5.02452 16.1296 5.64844V14.5364L20.4484 18.9135C20.8866 19.3577 20.8818 20.0729 20.4377 20.5111Z" fill="#F64D60"/>
<path d="M8.70321 23.863V18.0611C8.70321 17.6764 8.56214 17.3075 8.31105 17.0354C8.05996 16.7634 7.7194 16.6106 7.3643 16.6106C7.0092 16.6106 6.66864 16.7634 6.41755 17.0354C6.16645 17.3075 6.02539 17.6764 6.02539 18.0611V23.863C6.02539 24.2477 6.16645 24.6166 6.41755 24.8887C6.66864 25.1607 7.0092 25.3135 7.3643 25.3135C7.7194 25.3135 8.05996 25.1607 8.31105 24.8887C8.56214 24.6166 8.70321 24.2477 8.70321 23.863Z" fill="#F64D60"/>
<path d="M7.3643 29.9996C8.10376 29.9996 8.70321 29.4001 8.70321 28.6607C8.70321 27.9212 8.10376 27.3218 7.3643 27.3218C6.62484 27.3218 6.02539 27.9212 6.02539 28.6607C6.02539 29.4001 6.62484 29.9996 7.3643 29.9996Z" fill="#F64D60"/>
</g>
<defs>
<clipPath id="clip0_1794_60312">
<rect width="30" height="30" fill="white" transform="matrix(-1 0 0 1 30 0)"/>
</clipPath>
</defs>
</svg>
