<svg width="30" height="30" viewBox="0 0 30 30" fill="none" xmlns="http://www.w3.org/2000/svg">
<path d="M15.7214 6.875C15.0843 6.875 14.5679 7.37278 14.5679 7.98685V16.4212L10.3379 20.4982C9.88737 20.9324 9.88737 21.6364 10.3379 22.0706C10.5631 22.2877 10.8583 22.3963 11.1536 22.3963C11.4488 22.3963 11.744 22.2877 11.9693 22.0706L16.5371 17.6679C16.7535 17.4594 16.875 17.1766 16.875 16.8817V7.98685C16.875 7.37278 16.3586 6.875 15.7214 6.875Z" fill="#8A50FC"/>
<path d="M2.3131 6.80585C2.67983 6.20438 3.4921 5.99821 4.12728 6.34557C4.76247 6.69283 4.9801 7.46199 4.61337 8.06346C4.24663 8.66494 3.43437 8.8711 2.79919 8.52375C2.164 8.17648 1.94637 7.40732 2.3131 6.80585ZM0 14.9803C0 14.2858 0.594633 13.7227 1.3281 13.7227C2.06156 13.7227 2.65619 14.2858 2.65619 14.9803C2.65619 15.6749 2.06156 16.2379 1.3281 16.2379C0.594633 16.2379 0 15.6749 0 14.9803ZM4.12728 23.6151C3.4921 23.9623 2.67983 23.7563 2.3131 23.1548C1.94637 22.5533 2.164 21.7842 2.79919 21.4369C3.43437 21.0896 4.24663 21.2957 4.61337 21.8972C4.9801 22.4987 4.76256 23.2678 4.12728 23.6151ZM8.63263 1.41869C9.26782 1.07143 10.0801 1.27751 10.4468 1.87898C10.8135 2.48045 10.5959 3.24961 9.96073 3.59688C9.32554 3.94414 8.51328 3.73806 8.14655 3.13659C7.77973 2.53512 7.99745 1.76596 8.63263 1.41869ZM10.4468 28.0817C10.0801 28.6832 9.26782 28.8893 8.63263 28.542C7.99745 28.1946 7.77973 27.4255 8.14655 26.8241C8.51328 26.2226 9.32554 26.0165 9.96073 26.3638C10.5959 26.711 10.8136 27.4801 10.4468 28.0817Z" fill="#8A50FC"/>
<path fill-rule="evenodd" clip-rule="evenodd" d="M15 1.01942C15 0.456409 15.4274 0 15.9545 0C23.7116 0 30 6.71573 30 15C30 23.2843 23.7116 30 15.9545 30C15.4274 30 15 29.5436 15 28.9806C15 28.4176 15.4274 27.9612 15.9545 27.9612C22.6573 27.9612 28.0909 22.1583 28.0909 15C28.0909 7.84175 22.6573 2.03884 15.9545 2.03884C15.4274 2.03884 15 1.58243 15 1.01942Z" fill="#8A50FC"/>
</svg>
