<svg width="30" height="30" viewBox="0 0 30 30" fill="none" xmlns="http://www.w3.org/2000/svg">
<g clip-path="url(#clip0_1794_60322)">
<path d="M25.6066 4.39336C22.7735 1.56029 19.0066 0 15 0C10.9934 0 7.22654 1.56029 4.39336 4.39336C1.56029 7.22654 0 10.9934 0 15C0 19.0066 1.56029 22.7735 4.39336 25.6066C7.22654 28.4397 10.9934 30 15 30C17.7429 30 20.4268 29.2525 22.7614 27.8383C23.315 27.503 23.4919 26.7824 23.1566 26.2288C22.8213 25.6752 22.1006 25.4983 21.5471 25.8336C19.5787 27.026 17.3147 27.6562 15 27.6562C8.02131 27.6562 2.34375 21.9787 2.34375 15C2.34375 8.02131 8.02131 2.34375 15 2.34375C21.9787 2.34375 27.6562 8.02131 27.6562 15C27.6562 17.4954 26.9142 19.9245 25.5101 22.0245C25.1504 22.5625 25.295 23.2903 25.833 23.65C26.3711 24.0097 27.0988 23.8651 27.4586 23.3271C29.1212 20.8403 30 17.9608 30 15C30 10.9934 28.4397 7.22654 25.6066 4.39336Z" fill="#FFA800"/>
<path fill-rule="evenodd" clip-rule="evenodd" d="M15 16.875C15.6904 16.875 16.25 16.2052 16.25 15.379V8.99601C16.25 8.16979 15.6904 7.5 15 7.5C14.3096 7.5 13.75 8.16979 13.75 8.99601V15.379C13.75 16.2052 14.3096 16.875 15 16.875Z" fill="#FFA800"/>
<path d="M13.75 20.7983C13.75 20.108 14.3097 19.5483 15 19.5483C15.6903 19.5483 16.25 20.108 16.25 20.7983C16.25 21.4887 15.6903 22.0483 15 22.0483C14.3097 22.0483 13.75 21.4887 13.75 20.7983Z" fill="#FFA800"/>
</g>
<defs>
<clipPath id="clip0_1794_60322">
<rect width="30" height="30" fill="white"/>
</clipPath>
</defs>
</svg>
