<svg width="16" height="16" viewBox="0 0 16 16" fill="none" xmlns="http://www.w3.org/2000/svg">
<g clip-path="url(#clip0_218_197)">
<path fill-rule="evenodd" clip-rule="evenodd" d="M14.4828 2.73656V10.9435C14.4824 11.0242 14.4408 11.0991 14.3725 11.1421C10.7311 13.3379 7.08972 8.73656 3.44834 11.0731L3.10352 6.36525L3.44834 2.33656C7.01248 0.0496615 10.5794 4.41104 14.1435 2.53518C14.2145 2.49574 14.3011 2.49698 14.371 2.53844C14.4408 2.57989 14.4834 2.65533 14.4828 2.73656Z" fill="#0A86FF"/>
<path fill-rule="evenodd" clip-rule="evenodd" d="M3.44816 1.99724V15.4483C3.405 15.7883 3.09967 16.0325 2.7585 16C2.5819 16.0033 2.40952 15.9459 2.27023 15.8372C2.14697 15.7453 2.07274 15.602 2.06885 15.4483V1.99724C2.48613 2.27677 3.03087 2.27677 3.44816 1.99724Z" fill="#0A86FF"/>
<path fill-rule="evenodd" clip-rule="evenodd" d="M3.99985 1.2414C3.99985 1.927 3.44406 2.48278 2.75847 2.48278C2.07287 2.48278 1.51709 1.927 1.51709 1.2414C1.51709 0.555807 2.07287 2.2649e-05 2.75847 2.2649e-05C3.08831 -0.00197444 3.40522 0.128172 3.63846 0.36141C3.8717 0.594648 4.00185 0.91156 3.99985 1.2414Z" fill="#0A86FF"/>
</g>
<defs>
<clipPath id="clip0_218_197">
<rect width="16" height="16" fill="white"/>
</clipPath>
</defs>
</svg>
