<svg width="24" height="24" viewBox="0 0 24 24" fill="none" xmlns="http://www.w3.org/2000/svg">
<path opacity="0.4" d="M22.5068 23.9998H0.900273C0.408124 23.9998 0 23.5916 0 23.0995C0 22.6073 0.408124 22.1992 0.900273 22.1992H22.5068C22.999 22.1992 23.4071 22.6073 23.4071 23.0995C23.4071 23.5916 22.999 23.9998 22.5068 23.9998Z" fill="#7E8299"/>
<path opacity="0.4" d="M20.13 1.76911C17.8013 -0.559598 15.5206 -0.619616 13.1319 1.76911L11.6795 3.22155C11.5594 3.34158 11.5114 3.53364 11.5594 3.70169C12.4717 6.88266 15.0165 9.42743 18.1974 10.3397C18.2454 10.3517 18.2935 10.3637 18.3415 10.3637C18.4735 10.3637 18.5935 10.3157 18.6896 10.2197L20.13 8.76723C21.3184 7.59087 21.8945 6.45053 21.8945 5.29818C21.9065 4.10982 21.3304 2.95747 20.13 1.76911Z" fill="#7E8299"/>
<path d="M16.037 11.4315C15.6889 11.2635 15.3528 11.0954 15.0287 10.9033C14.7646 10.7473 14.5125 10.5792 14.2604 10.3992C14.0564 10.2672 13.8163 10.0751 13.5882 9.88304C13.5642 9.87103 13.4802 9.79901 13.3842 9.70298C12.9881 9.36688 12.5439 8.93475 12.1478 8.45461C12.1118 8.4306 12.0518 8.34657 11.9677 8.23854C11.8477 8.0945 11.6437 7.85442 11.4636 7.57834C11.3196 7.39829 11.1515 7.13421 10.9955 6.87013C10.8034 6.54603 10.6353 6.22193 10.4673 5.88583C10.2992 5.52572 10.1672 5.17761 10.0472 4.85352L2.50889 12.3918C2.35284 12.5478 2.20879 12.8479 2.17278 13.052L1.52459 17.6494C1.40455 18.4656 1.63262 19.2339 2.13677 19.75C2.5689 20.1701 3.16908 20.3982 3.81728 20.3982C3.96132 20.3982 4.10537 20.3862 4.24941 20.3622L8.85881 19.714C9.07487 19.678 9.37496 19.534 9.51901 19.3779L17.0573 11.8396C16.7212 11.7196 16.3971 11.5876 16.037 11.4315Z" fill="#7E8299"/>
</svg>
