<svg width="40" height="40" viewBox="0 0 40 40" fill="none" xmlns="http://www.w3.org/2000/svg">
<path fill-rule="evenodd" clip-rule="evenodd" d="M38.6851 23.7174C38.9229 22.5151 39.0476 21.2721 39.0476 20C39.0476 18.7279 38.9229 17.4849 38.6851 16.2826L39.6193 16.0978C39.8692 17.3606 40 18.6655 40 20C40 21.3345 39.8692 22.6394 39.6193 23.9022L38.6851 23.7174ZM35.8393 9.41684L36.6307 8.88702C35.1709 6.7064 33.2936 4.82915 31.113 3.36926L30.5832 4.16066C32.6603 5.55129 34.4487 7.33967 35.8393 9.41684ZM23.7174 1.31493L23.9022 0.38066C22.6394 0.130833 21.3345 0 20 0C18.6655 0 17.3606 0.130833 16.0978 0.38066L16.2826 1.31493C17.4849 1.07708 18.7279 0.952381 20 0.952381C21.2721 0.952381 22.5151 1.07708 23.7174 1.31493ZM9.41684 4.16066L8.88702 3.36926C6.7064 4.82915 4.82915 6.7064 3.36926 8.88702L4.16066 9.41685C5.55129 7.33968 7.33967 5.55129 9.41684 4.16066ZM1.31493 16.2826C1.07708 17.4849 0.952381 18.7279 0.952381 20C0.952381 21.2721 1.07708 22.5151 1.31493 23.7174L0.38066 23.9022C0.130833 22.6394 0 21.3345 0 20C0 18.6655 0.130833 17.3606 0.38066 16.0978L1.31493 16.2826ZM4.16066 30.5832L3.36926 31.113C4.82915 33.2936 6.7064 35.1709 8.88702 36.6307L9.41685 35.8393C7.33968 34.4487 5.55129 32.6603 4.16066 30.5832ZM16.2826 38.6851L16.0978 39.6193C17.3606 39.8692 18.6655 40 20 40C21.3345 40 22.6394 39.8692 23.9022 39.6193L23.7174 38.6851C22.5151 38.9229 21.2721 39.0476 20 39.0476C18.7279 39.0476 17.4849 38.9229 16.2826 38.6851ZM30.5832 35.8393L31.113 36.6307C33.2936 35.1709 35.1709 33.2936 36.6307 31.113L35.8393 30.5832C34.4487 32.6603 32.6603 34.4487 30.5832 35.8393Z" fill="#B5B5C3"/>
</svg>
