<svg width="25" height="24" viewBox="0 0 25 24" fill="none" xmlns="http://www.w3.org/2000/svg">
<path opacity="0.4" d="M21.4308 14.9875C21.0441 15.3743 20.4306 15.3743 20.0572 14.9875C19.6704 14.6008 19.6704 13.9873 20.0572 13.6138C22.7245 10.9465 22.7245 6.61205 20.0572 3.95805C17.3898 1.30404 13.0554 1.2907 10.4014 3.95805C7.74736 6.62539 7.73402 10.9598 10.4014 13.6138C10.7881 14.0006 10.7881 14.6141 10.4014 14.9875C10.0146 15.3743 9.40111 15.3743 9.02769 14.9875C5.60015 11.56 5.60015 5.98523 9.02769 2.57103C12.4552 -0.843176 18.03 -0.856512 21.4442 2.57103C24.8584 5.99856 24.8584 11.56 21.4308 14.9875Z" fill="#7E8299"/>
<path d="M2.57232 9.01273C2.95909 8.62596 3.57258 8.62596 3.94601 9.01273C4.33277 9.3995 4.33277 10.013 3.94601 10.3864C1.27866 13.0538 1.27866 17.3882 3.94601 20.0422C6.61335 22.6962 10.9478 22.7095 13.6018 20.0422C16.2558 17.3749 16.2691 13.0404 13.6018 10.3864C13.215 9.99965 13.215 9.38616 13.6018 9.01273C13.9886 8.62596 14.602 8.62596 14.9755 9.01273C18.403 12.4403 18.403 18.015 14.9755 21.4292C11.5479 24.8434 5.97319 24.8568 2.55899 21.4292C-0.855215 18.0017 -0.855215 12.4403 2.57232 9.01273Z" fill="#7E8299"/>
</svg>
