<svg width="20" height="20" viewBox="0 0 20 20" fill="none" xmlns="http://www.w3.org/2000/svg">
<path opacity="0.4" d="M16.2999 1C15.8587 1 15.3999 1.45882 15.3999 1.9V5.49999C15.3999 5.94117 15.8587 6.39999 16.2999 6.39999C16.7411 6.39999 17.1999 5.94117 17.1999 5.49999V1.9C17.1999 1.45882 16.7411 1 16.2999 1Z" fill="#7E8299"/>
<path d="M10.0001 13.6C9.55892 13.6 9.1001 14.0588 9.1001 14.5V18.1C9.1001 18.5411 9.55892 19 10.0001 19C10.4413 19 10.9001 18.5411 10.9001 18.1V14.5C10.9001 14.0676 10.4413 13.6 10.0001 13.6Z" fill="#7E8299"/>
<path opacity="0.4" d="M3.6998 1C3.25863 1 2.7998 1.45882 2.7998 1.9V5.49999C2.7998 5.94117 3.25863 6.39999 3.6998 6.39999C4.14098 6.39999 4.5998 5.94117 4.5998 5.49999V1.9C4.5998 1.45882 4.13216 1 3.6998 1Z" fill="#7E8299"/>
<path opacity="0.4" d="M5.49999 8.20001H1.9C1.45882 8.20001 1 8.65884 1 9.10001C1 9.54119 1.45882 10 1.9 10H2.8V18.1C2.8 18.5412 3.25882 19 3.7 19C4.14117 19 4.6 18.5412 4.6 18.1V10H5.49999C5.94117 10 6.39999 9.54119 6.39999 9.10001C6.39999 8.65884 5.93235 8.20001 5.49999 8.20001Z" fill="#7E8299"/>
<path opacity="0.4" d="M18.1001 8.20001H16.3001H14.5001C14.0589 8.20001 13.6001 8.65884 13.6001 9.10001C13.6001 9.54119 14.0589 9.97353 14.5001 9.97353H15.4001V18.1C15.4001 18.5412 15.8589 19 16.3001 19C16.7413 19 17.2001 18.5412 17.2001 18.1V9.97353H18.1001C18.5413 9.97353 19.0001 9.54119 19.0001 9.10001C19.0001 8.65884 18.5413 8.20001 18.1001 8.20001Z" fill="#7E8299"/>
<path d="M11.7998 9.99999H10.8998V1.9C10.8998 1.45882 10.441 1 9.9998 1C9.55863 1 9.0998 1.45882 9.0998 1.9V9.99999H8.1998C7.75863 9.99999 7.2998 10.4588 7.2998 10.9C7.2998 11.3412 7.75863 11.7912 8.1998 11.7912L11.7998 11.8C12.241 11.8 12.6998 11.3412 12.6998 10.9C12.6998 10.4588 12.241 9.99999 11.7998 9.99999Z" fill="#7E8299"/>
</svg>
