<svg width="40" height="40" viewBox="0 0 40 40" fill="none" xmlns="http://www.w3.org/2000/svg">
<path fill-rule="evenodd" clip-rule="evenodd" d="M38.6851 23.7174C38.9229 22.5151 39.0476 21.2721 39.0476 20C39.0476 18.7279 38.9229 17.4849 38.6851 16.2826L39.6193 16.0978C39.8692 17.3606 40 18.6655 40 20C40 21.3345 39.8692 22.6394 39.6193 23.9022L38.6851 23.7174ZM35.8393 9.41684L36.6307 8.88702C35.1709 6.7064 33.2936 4.82915 31.113 3.36926L30.5832 4.16066C32.6603 5.55129 34.4487 7.33967 35.8393 9.41684ZM23.7174 1.31493L23.9022 0.38066C22.6394 0.130833 21.3345 0 20 0C18.6655 0 17.3606 0.130833 16.0978 0.38066L16.2826 1.31493C17.4849 1.07708 18.7279 0.952381 20 0.952381C21.2721 0.952381 22.5151 1.07708 23.7174 1.31493ZM9.41684 4.16066L8.88702 3.36926C6.7064 4.82915 4.82915 6.7064 3.36926 8.88702L4.16066 9.41685C5.55129 7.33968 7.33967 5.55129 9.41684 4.16066ZM1.31493 16.2826C1.07708 17.4849 0.952381 18.7279 0.952381 20C0.952381 21.2721 1.07708 22.5151 1.31493 23.7174L0.38066 23.9022C0.130833 22.6394 0 21.3345 0 20C0 18.6655 0.130833 17.3606 0.38066 16.0978L1.31493 16.2826ZM4.16066 30.5832L3.36926 31.113C4.82915 33.2936 6.7064 35.1709 8.88702 36.6307L9.41685 35.8393C7.33968 34.4487 5.55129 32.6603 4.16066 30.5832ZM16.2826 38.6851L16.0978 39.6193C17.3606 39.8692 18.6655 40 20 40C21.3345 40 22.6394 39.8692 23.9022 39.6193L23.7174 38.6851C22.5151 38.9229 21.2721 39.0476 20 39.0476C18.7279 39.0476 17.4849 38.9229 16.2826 38.6851ZM30.5832 35.8393L31.113 36.6307C33.2936 35.1709 35.1709 33.2936 36.6307 31.113L35.8393 30.5832C34.4487 32.6603 32.6603 34.4487 30.5832 35.8393Z" fill="#B5B5C3"/>
<path opacity="0.4" d="M22.8944 9.05838L17.2671 8.17049C12.5757 7.43858 10.404 9.02238 9.66008 13.7138L8.77219 19.3411C8.29225 22.4127 8.79619 24.4044 10.536 25.6163C11.4479 26.2642 12.6957 26.6961 14.3155 26.9481L19.9428 27.836C24.6342 28.5679 26.8059 26.9841 27.5498 22.2927L28.4257 16.6654C28.5697 15.7415 28.6297 14.9136 28.5817 14.1817C28.4257 11.1821 26.6619 9.6463 22.8944 9.05838ZM16.1153 16.8214C14.7114 16.8214 13.5716 15.6815 13.5716 14.2897C13.5716 12.8859 14.7114 11.746 16.1153 11.746C17.5071 11.746 18.6469 12.8859 18.6469 14.2897C18.6469 15.6815 17.5071 16.8214 16.1153 16.8214Z" fill="#7E8299"/>
<path d="M30.8256 21.7647L29.0258 27.176C27.526 31.6874 25.1263 32.8873 20.6149 31.3875L15.2035 29.5877C12.4799 28.6878 10.9681 27.44 10.5361 25.6162C11.448 26.2641 12.6959 26.6961 14.3157 26.948L19.9429 27.8359C24.6343 28.5678 26.8061 26.984 27.55 22.2926L28.4259 16.6653C28.5698 15.7414 28.6298 14.9135 28.5818 14.1816C31.4495 15.7054 32.0734 18.0092 30.8256 21.7647Z" fill="#7E8299"/>
<path d="M18.6471 14.2893C18.6471 15.6811 17.5073 16.821 16.1155 16.821C14.7116 16.821 13.5718 15.6811 13.5718 14.2893C13.5718 12.8855 14.7116 11.7456 16.1155 11.7456C17.5073 11.7456 18.6471 12.8855 18.6471 14.2893Z" fill="#7E8299"/>
</svg>
