<svg width="40" height="40" viewBox="0 0 40 40" fill="none" xmlns="http://www.w3.org/2000/svg">
<path opacity="0.4" d="M30.816 31.3999C30.816 31.7359 30.552 31.9999 30.216 31.9999H9.6C9.264 31.9999 9 31.7359 9 31.3999C9 26.4319 13.896 22.3999 19.908 22.3999C21.144 22.3999 22.344 22.5679 23.448 22.8919C22.74 23.7319 22.308 24.8239 22.308 25.9999C22.308 26.8999 22.56 27.7519 23.004 28.4719C23.244 28.8799 23.556 29.2519 23.916 29.5639C24.756 30.3319 25.872 30.7999 27.108 30.7999C28.452 30.7999 29.664 30.2479 30.528 29.3599C30.72 30.0079 30.816 30.6919 30.816 31.3999Z" fill="#7E8299"/>
<path d="M30.6716 22.7962C29.8076 21.8122 28.5236 21.2002 27.1076 21.2002C25.7636 21.2002 24.5396 21.7522 23.6636 22.6522C22.8236 23.5162 22.3076 24.7042 22.3076 26.0002C22.3076 26.9002 22.5596 27.7522 23.0036 28.4722C23.2436 28.8802 23.5556 29.2522 23.9156 29.5642C24.7556 30.3322 25.8716 30.8002 27.1076 30.8002C28.8596 30.8002 30.3836 29.8642 31.2116 28.4722C31.4636 28.0642 31.6556 27.5962 31.7636 27.1162C31.8596 26.7562 31.9076 26.3842 31.9076 26.0002C31.9076 24.7762 31.4396 23.6482 30.6716 22.7962ZM28.9076 26.8762H28.0076V27.8122C28.0076 28.3042 27.5996 28.7122 27.1076 28.7122C26.6156 28.7122 26.2076 28.3042 26.2076 27.8122V26.8762H25.3076C24.8156 26.8762 24.4076 26.4682 24.4076 25.9762C24.4076 25.4842 24.8156 25.0762 25.3076 25.0762H26.2076V24.2242C26.2076 23.7322 26.6156 23.3242 27.1076 23.3242C27.5996 23.3242 28.0076 23.7322 28.0076 24.2242V25.0762H28.9076C29.3996 25.0762 29.8076 25.4842 29.8076 25.9762C29.8076 26.4682 29.3996 26.8762 28.9076 26.8762Z" fill="#7E8299"/>
<path d="M19.9077 20C23.2214 20 25.9077 17.3137 25.9077 14C25.9077 10.6863 23.2214 8 19.9077 8C16.594 8 13.9077 10.6863 13.9077 14C13.9077 17.3137 16.594 20 19.9077 20Z" fill="#7E8299"/>
<path fill-rule="evenodd" clip-rule="evenodd" d="M38.6851 23.7174C38.9229 22.5151 39.0476 21.2721 39.0476 20C39.0476 18.7279 38.9229 17.4849 38.6851 16.2826L39.6193 16.0978C39.8692 17.3606 40 18.6655 40 20C40 21.3345 39.8692 22.6394 39.6193 23.9022L38.6851 23.7174ZM35.8393 9.41684L36.6307 8.88702C35.1709 6.7064 33.2936 4.82915 31.113 3.36926L30.5832 4.16066C32.6603 5.55129 34.4487 7.33967 35.8393 9.41684ZM23.7174 1.31493L23.9022 0.38066C22.6394 0.130833 21.3345 0 20 0C18.6655 0 17.3606 0.130833 16.0978 0.38066L16.2826 1.31493C17.4849 1.07708 18.7279 0.952381 20 0.952381C21.2721 0.952381 22.5151 1.07708 23.7174 1.31493ZM9.41684 4.16066L8.88702 3.36926C6.7064 4.82915 4.82915 6.7064 3.36926 8.88702L4.16066 9.41685C5.55129 7.33968 7.33967 5.55129 9.41684 4.16066ZM1.31493 16.2826C1.07708 17.4849 0.952381 18.7279 0.952381 20C0.952381 21.2721 1.07708 22.5151 1.31493 23.7174L0.38066 23.9022C0.130833 22.6394 0 21.3345 0 20C0 18.6655 0.130833 17.3606 0.38066 16.0978L1.31493 16.2826ZM4.16066 30.5832L3.36926 31.113C4.82915 33.2936 6.7064 35.1709 8.88702 36.6307L9.41685 35.8393C7.33968 34.4487 5.55129 32.6603 4.16066 30.5832ZM16.2826 38.6851L16.0978 39.6193C17.3606 39.8692 18.6655 40 20 40C21.3345 40 22.6394 39.8692 23.9022 39.6193L23.7174 38.6851C22.5151 38.9229 21.2721 39.0476 20 39.0476C18.7279 39.0476 17.4849 38.9229 16.2826 38.6851ZM30.5832 35.8393L31.113 36.6307C33.2936 35.1709 35.1709 33.2936 36.6307 31.113L35.8393 30.5832C34.4487 32.6603 32.6603 34.4487 30.5832 35.8393Z" fill="#B5B5C3"/>
</svg>
