<svg width="20" height="20" viewBox="0 0 20 20" fill="none" xmlns="http://www.w3.org/2000/svg">
<rect width="20" height="20" rx="3" fill="#0A85FF"/>
<g clip-path="url(#clip0_605_23102)">
<path d="M17.8184 9.38791L11.3062 2.83281C11.2978 2.82438 11.2892 2.81619 11.2804 2.80825C10.5693 2.16978 9.49475 2.1675 8.78093 2.80297C8.77206 2.81088 8.76343 2.81903 8.75503 2.82741L2.1835 9.386C1.93918 9.62988 1.93878 10.0256 2.18262 10.2699C2.4265 10.5142 2.82222 10.5146 3.0665 10.2708L3.5625 9.77575V15.1721C3.5625 16.5506 4.684 17.6721 6.0625 17.6721H8.3125C8.65768 17.6721 8.9375 17.3923 8.9375 17.0471V11.9534H11.125V17.0471C11.125 17.3923 11.4048 17.6721 11.75 17.6721H13.9375C15.316 17.6721 16.4375 16.5506 16.4375 15.1721C16.4375 14.8269 16.1577 14.5471 15.8125 14.5471C15.4673 14.5471 15.1875 14.8269 15.1875 15.1721C15.1875 15.8614 14.6267 16.4221 13.9375 16.4221H12.375V11.3284C12.375 10.9832 12.0952 10.7034 11.75 10.7034H8.3125C7.96731 10.7034 7.6875 10.9832 7.6875 11.3284V16.4221H6.0625C5.37325 16.4221 4.8125 15.8614 4.8125 15.1721V8.54713C4.8125 8.54088 4.8124 8.53466 4.81222 8.52847L9.62331 3.72688C9.85746 3.52803 10.2009 3.52878 10.4342 3.7286L15.1875 8.51328V12.0471C15.1875 12.3923 15.4673 12.6721 15.8125 12.6721C16.1577 12.6721 16.4375 12.3923 16.4375 12.0471V9.7715L16.9316 10.2689C17.0538 10.3919 17.2143 10.4534 17.375 10.4534C17.5343 10.4534 17.6936 10.3929 17.8155 10.2718C18.0604 10.0285 18.0617 9.63278 17.8184 9.38791Z" fill="white"/>
</g>
<defs>
<clipPath id="clip0_605_23102">
<rect width="16" height="16" fill="white" transform="translate(2 2)"/>
</clipPath>
</defs>
</svg>
