<svg width="28" height="28" viewBox="0 0 28 28" fill="none" xmlns="http://www.w3.org/2000/svg">
<g filter="url(#filter0_d_2024_60827)">
<rect x="2.5" y="2.5" width="19" height="19" rx="2.5" stroke="#F64D60"/>
<path fill-rule="evenodd" clip-rule="evenodd" d="M12.0005 15.0278C12.3055 15.0278 12.5528 15.2751 12.5528 15.5801V16.4503C12.5528 16.7553 12.3055 17.0026 12.0005 17.0026C11.6955 17.0026 11.4482 16.7553 11.4482 16.4503V15.5801C11.4482 15.2751 11.6955 15.0278 12.0005 15.0278Z" fill="#F64D60"/>
<path fill-rule="evenodd" clip-rule="evenodd" d="M11.448 7.91878C9.43764 8.18955 7.88188 9.91709 7.88188 12.0002C7.88188 14.2706 9.72986 16.1186 12.0002 16.1186C14.0834 16.1186 15.8109 14.5628 16.0817 12.5525H15.5798C15.2748 12.5525 15.0276 12.3052 15.0276 12.0002C15.0276 11.6952 15.2748 11.448 15.5798 11.448H16.6708C16.9758 11.448 17.2231 11.6952 17.2231 12.0002C17.2231 14.8806 14.8806 17.2231 12.0002 17.2231C9.11985 17.2231 6.77734 14.8806 6.77734 12.0002C6.77734 9.11985 9.11985 6.77734 12.0002 6.77734C12.3052 6.77734 12.5525 7.0246 12.5525 7.32961V8.42061C12.5525 8.72562 12.3052 8.97288 12.0002 8.97288C11.6952 8.97288 11.448 8.72562 11.448 8.42061V7.91878Z" fill="#F64D60"/>
<path fill-rule="evenodd" clip-rule="evenodd" d="M6.99805 12C6.99805 11.695 7.24531 11.4478 7.55032 11.4478H8.4205C8.72551 11.4478 8.97277 11.695 8.97277 12C8.97277 12.305 8.72551 12.5523 8.4205 12.5523H7.55032C7.24531 12.5523 6.99805 12.305 6.99805 12Z" fill="#F64D60"/>
<path fill-rule="evenodd" clip-rule="evenodd" d="M12 10.2051C12.305 10.2051 12.5523 10.4523 12.5523 10.7573V11.7171L13.3922 12.321C13.6398 12.4991 13.6962 12.8442 13.5182 13.0918C13.3401 13.3394 12.995 13.3959 12.7474 13.2178L11.6776 12.4486C11.5333 12.3448 11.4478 12.1779 11.4478 12.0002V10.7573C11.4478 10.4523 11.695 10.2051 12 10.2051Z" fill="#F64D60"/>
<path fill-rule="evenodd" clip-rule="evenodd" d="M4 12C4 7.58173 7.58173 4 12 4C16.4183 4 20 7.58173 20 12C20 13.472 19.6019 14.8528 18.9072 16.0386C18.753 16.3018 18.4146 16.3901 18.1515 16.2359C17.8883 16.0818 17.7999 15.7434 17.9541 15.4803C18.5524 14.4592 18.8955 13.2705 18.8955 12C18.8955 8.19175 15.8083 5.10454 12 5.10454C8.19175 5.10454 5.10454 8.19175 5.10454 12C5.10454 15.8083 8.19175 18.8955 12 18.8955C13.4813 18.8955 14.852 18.429 15.9753 17.635C16.2244 17.4589 16.569 17.5181 16.7451 17.7672C16.9212 18.0162 16.862 18.3609 16.6129 18.5369C15.3092 19.4585 13.717 20 12 20C7.58173 20 4 16.4183 4 12Z" fill="#F64D60"/>
</g>
<defs>
<filter id="filter0_d_2024_60827" x="0" y="0" width="28" height="28" filterUnits="userSpaceOnUse" color-interpolation-filters="sRGB">
<feFlood flood-opacity="0" result="BackgroundImageFix"/>
<feColorMatrix in="SourceAlpha" type="matrix" values="0 0 0 0 0 0 0 0 0 0 0 0 0 0 0 0 0 0 127 0" result="hardAlpha"/>
<feOffset dx="2" dy="2"/>
<feGaussianBlur stdDeviation="2"/>
<feComposite in2="hardAlpha" operator="out"/>
<feColorMatrix type="matrix" values="0 0 0 0 1 0 0 0 0 1 0 0 0 0 1 0 0 0 0.15 0"/>
<feBlend mode="normal" in2="BackgroundImageFix" result="effect1_dropShadow_2024_60827"/>
<feBlend mode="normal" in="SourceGraphic" in2="effect1_dropShadow_2024_60827" result="shape"/>
</filter>
</defs>
</svg>
