<svg width="20" height="20" viewBox="0 0 20 20" fill="none" xmlns="http://www.w3.org/2000/svg">
<rect x="0.5" y="0.5" width="19" height="19" rx="2.5" stroke="#1BC4BD"/>
<path d="M7.4375 9.5H4.0625C2.92522 9.5 2 8.57478 2 7.4375V4.0625C2 2.92522 2.92522 2 4.0625 2H7.4375C8.57478 2 9.5 2.92522 9.5 4.0625V7.4375C9.5 8.57478 8.57478 9.5 7.4375 9.5ZM4.0625 3C3.47663 3 3 3.47663 3 4.0625V7.4375C3 8.02337 3.47663 8.5 4.0625 8.5H7.4375C8.02337 8.5 8.5 8.02337 8.5 7.4375V4.0625C8.5 3.47663 8.02337 3 7.4375 3H4.0625Z" fill="#1BC4BD"/>
<path d="M15.9375 9.5H12.5625C11.4252 9.5 10.5 8.57478 10.5 7.4375V4.0625C10.5 2.92522 11.4252 2 12.5625 2H15.9375C17.0748 2 18 2.92522 18 4.0625V7.4375C18 8.57478 17.0748 9.5 15.9375 9.5ZM12.5625 3C11.9766 3 11.5 3.47663 11.5 4.0625V7.4375C11.5 8.02337 11.9766 8.5 12.5625 8.5H15.9375C16.5234 8.5 17 8.02337 17 7.4375V4.0625C17 3.47663 16.5234 3 15.9375 3H12.5625Z" fill="#1BC4BD"/>
<path d="M14.25 18C12.1823 18 10.5 16.3177 10.5 14.25C10.5 12.1823 12.1823 10.5 14.25 10.5C16.3177 10.5 18 12.1823 18 14.25C18 16.3177 16.3177 18 14.25 18ZM14.25 11.5C12.7337 11.5 11.5 12.7337 11.5 14.25C11.5 15.7663 12.7337 17 14.25 17C15.7663 17 17 15.7663 17 14.25C17 12.7337 15.7663 11.5 14.25 11.5Z" fill="#1BC4BD"/>
<path d="M7.4375 18H4.0625C2.92522 18 2 17.0748 2 15.9375V12.5625C2 11.4252 2.92522 10.5 4.0625 10.5H7.4375C8.57478 10.5 9.5 11.4252 9.5 12.5625V15.9375C9.5 17.0748 8.57478 18 7.4375 18ZM4.0625 11.5C3.47663 11.5 3 11.9766 3 12.5625V15.9375C3 16.5234 3.47663 17 4.0625 17H7.4375C8.02337 17 8.5 16.5234 8.5 15.9375V12.5625C8.5 11.9766 8.02337 11.5 7.4375 11.5H4.0625Z" fill="#1BC4BD"/>
</svg>
