<svg width="20" height="20" viewBox="0 0 20 20" fill="none" xmlns="http://www.w3.org/2000/svg">
<rect width="20" height="20" rx="3" fill="#FFA800" fill-opacity="0.15"/>
<path fill-rule="evenodd" clip-rule="evenodd" d="M5.55891 2.16185C5.66337 2.05828 5.80506 2.00009 5.95279 2.00009H12.0961C13.1632 2.00009 14.066 2.69143 14.3765 3.64551C14.4709 3.93578 14.3102 4.24702 14.0174 4.34067C13.7246 4.43433 13.4107 4.27494 13.3162 3.98467C13.1498 3.47338 12.6656 3.10462 12.0961 3.10462H6.18352L3.11405 6.14785V15.6247C3.11405 16.3265 3.68789 16.8955 4.39579 16.8955H12.0961C12.8039 16.8955 13.3778 16.3265 13.3778 15.6247V15.5979C13.3778 15.2929 13.6272 15.0456 13.9348 15.0456C14.2425 15.0456 14.4918 15.2929 14.4918 15.5979V15.6247C14.4918 16.9366 13.4192 18 12.0961 18H4.39579C3.07261 18 2 16.9365 2 15.6247V5.91909C2 5.77262 2.05869 5.63215 2.16315 5.52858L5.55891 2.16185Z" fill="#FFA800"/>
<path fill-rule="evenodd" clip-rule="evenodd" d="M13.934 10.2763C14.2416 10.2763 14.491 10.5235 14.491 10.8285V12.4105C14.491 12.7155 14.2416 12.9627 13.934 12.9627C13.6263 12.9627 13.377 12.7155 13.377 12.4105V10.8285C13.377 10.5235 13.6263 10.2763 13.934 10.2763Z" fill="#FFA800"/>
<path fill-rule="evenodd" clip-rule="evenodd" d="M6.166 2.04206C6.37415 2.12754 6.50986 2.32891 6.50986 2.55228V4.09597C6.50986 5.40785 5.43722 6.47128 4.11408 6.47128H2.55704C2.33175 6.47128 2.12863 6.33673 2.04242 6.13036C1.9562 5.92399 2.00386 5.68645 2.16317 5.52851L5.55896 2.16177C5.71827 2.00382 5.95786 1.95657 6.166 2.04206ZM3.90183 5.36675H4.11408C4.82195 5.36675 5.39581 4.79782 5.39581 4.09597V3.88556L3.90183 5.36675Z" fill="#FFA800"/>
<path fill-rule="evenodd" clip-rule="evenodd" d="M13.9348 4.39878C12.3058 4.39878 10.9851 5.70812 10.9851 7.32326C10.9851 8.93841 12.3058 10.2477 13.9348 10.2477C15.5639 10.2477 16.8845 8.93841 16.8845 7.32326C16.8845 5.70812 15.5639 4.39878 13.9348 4.39878ZM9.87109 7.32326C9.87109 5.0981 11.6905 3.29425 13.9348 3.29425C16.1792 3.29425 17.9986 5.0981 17.9986 7.32326C17.9986 9.54843 16.1792 11.3523 13.9348 11.3523C11.6905 11.3523 9.87109 9.54843 9.87109 7.32326Z" fill="#FFA800"/>
<path fill-rule="evenodd" clip-rule="evenodd" d="M13.9359 5.44992C14.2436 5.44992 14.493 5.69718 14.493 6.00219V6.57023C14.493 6.87524 14.2436 7.1225 13.9359 7.1225C13.6283 7.1225 13.3789 6.87524 13.3789 6.57023V6.00219C13.3789 5.69718 13.6283 5.44992 13.9359 5.44992Z" fill="#FFA800"/>
<path fill-rule="evenodd" clip-rule="evenodd" d="M13.9467 8.05917C14.2543 8.05917 14.5037 8.30643 14.5037 8.61144V8.643C14.5037 8.948 14.2543 9.19526 13.9467 9.19526C13.639 9.19526 13.3896 8.948 13.3896 8.643V8.61144C13.3896 8.30643 13.639 8.05917 13.9467 8.05917Z" fill="#FFA800"/>
<path fill-rule="evenodd" clip-rule="evenodd" d="M5.02588 11.3963C5.02588 11.0913 5.27527 10.8441 5.58291 10.8441H8.65368C8.96132 10.8441 9.21071 11.0913 9.21071 11.3963C9.21071 11.7013 8.96132 11.9486 8.65368 11.9486H5.58291C5.27527 11.9486 5.02588 11.7013 5.02588 11.3963Z" fill="#FFA800"/>
<path fill-rule="evenodd" clip-rule="evenodd" d="M5.02588 14.1647C5.02588 13.8597 5.27527 13.6124 5.58291 13.6124H10.905C11.2127 13.6124 11.4621 13.8597 11.4621 14.1647C11.4621 14.4697 11.2127 14.717 10.905 14.717H5.58291C5.27527 14.717 5.02588 14.4697 5.02588 14.1647Z" fill="#FFA800"/>
<path fill-rule="evenodd" clip-rule="evenodd" d="M5.02588 8.61577C5.02588 8.31076 5.27527 8.06351 5.58291 8.06351H7.49157C7.7992 8.06351 8.04859 8.31076 8.04859 8.61577C8.04859 8.92078 7.7992 9.16804 7.49157 9.16804H5.58291C5.27527 9.16804 5.02588 8.92078 5.02588 8.61577Z" fill="#FFA800"/>
</svg>
