<svg width="20" height="20" viewBox="0 0 20 20" fill="none" xmlns="http://www.w3.org/2000/svg">
<rect width="20" height="20" rx="3" fill="#5B8FB9" fill-opacity="0.15"/>
<g clip-path="url(#clip0_1093_42059)">
<path d="M15.6569 4.34313C14.1458 2.83216 12.1369 2 10 2C7.86313 2 5.85416 2.83216 4.34313 4.34313C2.83216 5.85416 2 7.86313 2 10C2 12.1369 2.83216 14.1458 4.34313 15.6569C5.85416 17.1678 7.86313 18 10 18C11.4629 18 12.8943 17.6013 14.1394 16.8471C14.4347 16.6682 14.529 16.2839 14.3502 15.9887C14.1713 15.6934 13.787 15.5991 13.4918 15.7779C12.442 16.4139 11.2346 16.75 10 16.75C6.27803 16.75 3.25 13.722 3.25 10C3.25 6.27803 6.27803 3.25 10 3.25C13.722 3.25 16.75 6.27803 16.75 10C16.75 11.3309 16.3542 12.6264 15.6054 13.7464C15.4136 14.0333 15.4907 14.4215 15.7776 14.6133C16.0646 14.8052 16.4527 14.7281 16.6446 14.4411C17.5313 13.1148 18 11.5791 18 10C18 7.86313 17.1678 5.85416 15.6569 4.34313Z" fill="#5B8FB9"/>
<path d="M10 5C7.24298 5 5 7.24298 5 10C5 12.757 7.24298 15 10 15C10.7632 15 11.4965 14.8316 12.1796 14.4995C12.4753 14.3558 12.5984 13.9996 12.4547 13.704C12.311 13.4083 11.9548 13.2851 11.6591 13.4289C11.1395 13.6814 10.5813 13.8095 10 13.8095C7.8994 13.8095 6.19048 12.1006 6.19048 10C6.19048 7.89943 7.8994 6.19048 10 6.19048C12.1006 6.19048 13.8095 7.89943 13.8095 10C13.8095 10.5639 13.6887 11.1069 13.4504 11.6139C13.3106 11.9115 13.4385 12.266 13.736 12.4058C14.0335 12.5457 14.3881 12.4178 14.5279 12.1203C14.8412 11.4537 15 10.7403 15 10C15 7.24298 12.757 5 10 5Z" fill="#5B8FB9"/>
<path fill-rule="evenodd" clip-rule="evenodd" d="M8.5 10C8.5 9.72386 8.74752 9.5 9.05284 9.5H10.9472C11.2525 9.5 11.5 9.72386 11.5 10C11.5 10.2761 11.2525 10.5 10.9472 10.5H9.05284C8.74752 10.5 8.5 10.2761 8.5 10Z" fill="#5B8FB9"/>
</g>
<defs>
<clipPath id="clip0_1093_42059">
<rect width="16" height="16" fill="white" transform="translate(2 2)"/>
</clipPath>
</defs>
</svg>
