<svg width="20" height="20" viewBox="0 0 20 20" fill="none" xmlns="http://www.w3.org/2000/svg">
<rect width="20" height="20" rx="3" fill="#A3A7B8"/>
<path d="M10 12C11.1046 12 12 11.1046 12 10C12 8.89543 11.1046 8 10 8C8.89543 8 8 8.89543 8 10C8 11.1046 8.89543 12 10 12Z" stroke="white" stroke-miterlimit="10" stroke-linecap="round" stroke-linejoin="round"/>
<path d="M3.33447 10.5867V9.41333C3.33447 8.72 3.90114 8.14666 4.60114 8.14666C5.80781 8.14666 6.30114 7.29333 5.69447 6.24666C5.34781 5.64666 5.55447 4.86666 6.16114 4.52L7.31447 3.86C7.84114 3.54667 8.52114 3.73333 8.83447 4.26L8.90781 4.38666C9.50781 5.43333 10.4945 5.43333 11.1011 4.38666L11.1745 4.26C11.4878 3.73333 12.1678 3.54667 12.6945 3.86L13.8478 4.52C14.4545 4.86666 14.6611 5.64666 14.3145 6.24666C13.7078 7.29333 14.2011 8.14666 15.4078 8.14666C16.1011 8.14666 16.6745 8.71333 16.6745 9.41333V10.5867C16.6745 11.28 16.1078 11.8533 15.4078 11.8533C14.2011 11.8533 13.7078 12.7067 14.3145 13.7533C14.6611 14.36 14.4545 15.1333 13.8478 15.48L12.6945 16.14C12.1678 16.4533 11.4878 16.2667 11.1745 15.74L11.1011 15.6133C10.5011 14.5667 9.51447 14.5667 8.90781 15.6133L8.83447 15.74C8.52114 16.2667 7.84114 16.4533 7.31447 16.14L6.16114 15.48C5.55447 15.1333 5.34781 14.3533 5.69447 13.7533C6.30114 12.7067 5.80781 11.8533 4.60114 11.8533C3.90114 11.8533 3.33447 11.28 3.33447 10.5867Z" stroke="white" stroke-miterlimit="10" stroke-linecap="round" stroke-linejoin="round"/>
</svg>
