<svg width="20" height="20" viewBox="0 0 20 20" fill="none" xmlns="http://www.w3.org/2000/svg">
<rect x="0.5" y="0.5" width="19" height="19" rx="2.5" stroke="#645CBB"/>
<path d="M18 10C18 11.5822 17.5308 13.129 16.6518 14.4446C15.7727 15.7602 14.5233 16.7855 13.0615 17.391C11.5997 17.9965 9.99113 18.155 8.43928 17.8463C6.88743 17.5376 5.46197 16.7757 4.34315 15.6569C3.22433 14.538 2.4624 13.1126 2.15372 11.5607C1.84504 10.0089 2.00347 8.40034 2.60897 6.93853C3.21447 5.47672 4.23985 4.22729 5.55544 3.34824C6.87103 2.46919 8.41775 2 10 2C10.1769 2 10.3465 2.07026 10.4716 2.19533C10.5966 2.3204 10.6669 2.49003 10.6669 2.66691V4C10.6669 4.17687 10.5966 4.34651 10.4716 4.47158C10.3465 4.59665 10.1769 4.66691 10 4.66691C9.82313 4.66691 9.6535 4.59665 9.52843 4.47158C9.40336 4.34651 9.33309 4.17687 9.33309 4V3.36655C7.79636 3.5209 6.36087 4.20396 5.27178 5.29907C4.18268 6.39418 3.50754 7.83341 3.36165 9.37098C3.21577 10.9085 3.60818 12.4491 4.47187 13.7295C5.33557 15.0099 6.61698 15.9507 8.09726 16.3913C9.57754 16.832 11.1649 16.745 12.5882 16.1454C14.0115 15.5457 15.1825 14.4706 15.9012 13.1035C16.6199 11.7365 16.8417 10.1623 16.5288 8.64987C16.2159 7.13743 15.3876 5.78054 14.1855 4.81091C14.049 4.69942 13.9623 4.53848 13.9441 4.36324C13.926 4.188 13.9779 4.0127 14.0886 3.87562C14.1993 3.73853 14.3597 3.65081 14.5348 3.6316C14.7099 3.61239 14.8855 3.66326 15.0233 3.77309C15.9544 4.52156 16.7054 5.46978 17.2206 6.54762C17.7359 7.62546 18.0022 8.80534 18 10ZM10 9C9.80222 9 9.60888 9.05865 9.44443 9.16853C9.27998 9.27841 9.15181 9.43459 9.07612 9.61732C9.00044 9.80004 8.98063 10.0011 9.01922 10.1951C9.0578 10.3891 9.15304 10.5673 9.2929 10.7071C9.43275 10.847 9.61093 10.9422 9.80491 10.9808C9.99889 11.0194 10.2 10.9996 10.3827 10.9239C10.5654 10.8482 10.7216 10.72 10.8315 10.5556C10.9414 10.3911 11 10.1978 11 10C11 9.98182 10.9956 9.96582 10.9949 9.94764L13.8044 7.13818C13.9297 7.01281 14.0002 6.84276 14.0002 6.66545C14.0002 6.48815 13.9297 6.3181 13.8044 6.19273C13.679 6.06735 13.5089 5.99692 13.3316 5.99692C13.1543 5.99692 12.9843 6.06735 12.8589 6.19273L10.0495 9.00218C10.0342 9.00436 10.0182 9 10 9Z" fill="#645CBB"/>
</svg>
