<svg width="28" height="28" viewBox="0 0 28 28" fill="none" xmlns="http://www.w3.org/2000/svg">
<g filter="url(#filter0_d_1093_42090)">
<rect x="2.5" y="2.5" width="19" height="19" rx="2.5" stroke="#1BC4BD"/>
<path d="M9.4375 11.5H6.0625C4.92522 11.5 4 10.5748 4 9.4375V6.0625C4 4.92522 4.92522 4 6.0625 4H9.4375C10.5748 4 11.5 4.92522 11.5 6.0625V9.4375C11.5 10.5748 10.5748 11.5 9.4375 11.5ZM6.0625 5C5.47663 5 5 5.47663 5 6.0625V9.4375C5 10.0234 5.47663 10.5 6.0625 10.5H9.4375C10.0234 10.5 10.5 10.0234 10.5 9.4375V6.0625C10.5 5.47663 10.0234 5 9.4375 5H6.0625Z" fill="#1BC4BD"/>
<path d="M17.9375 11.5H14.5625C13.4252 11.5 12.5 10.5748 12.5 9.4375V6.0625C12.5 4.92522 13.4252 4 14.5625 4H17.9375C19.0748 4 20 4.92522 20 6.0625V9.4375C20 10.5748 19.0748 11.5 17.9375 11.5ZM14.5625 5C13.9766 5 13.5 5.47663 13.5 6.0625V9.4375C13.5 10.0234 13.9766 10.5 14.5625 10.5H17.9375C18.5234 10.5 19 10.0234 19 9.4375V6.0625C19 5.47663 18.5234 5 17.9375 5H14.5625Z" fill="#1BC4BD"/>
<path d="M16.25 20C14.1823 20 12.5 18.3177 12.5 16.25C12.5 14.1823 14.1823 12.5 16.25 12.5C18.3177 12.5 20 14.1823 20 16.25C20 18.3177 18.3177 20 16.25 20ZM16.25 13.5C14.7337 13.5 13.5 14.7337 13.5 16.25C13.5 17.7663 14.7337 19 16.25 19C17.7663 19 19 17.7663 19 16.25C19 14.7337 17.7663 13.5 16.25 13.5Z" fill="#1BC4BD"/>
<path d="M9.4375 20H6.0625C4.92522 20 4 19.0748 4 17.9375V14.5625C4 13.4252 4.92522 12.5 6.0625 12.5H9.4375C10.5748 12.5 11.5 13.4252 11.5 14.5625V17.9375C11.5 19.0748 10.5748 20 9.4375 20ZM6.0625 13.5C5.47663 13.5 5 13.9766 5 14.5625V17.9375C5 18.5234 5.47663 19 6.0625 19H9.4375C10.0234 19 10.5 18.5234 10.5 17.9375V14.5625C10.5 13.9766 10.0234 13.5 9.4375 13.5H6.0625Z" fill="#1BC4BD"/>
</g>
<defs>
<filter id="filter0_d_1093_42090" x="0" y="0" width="28" height="28" filterUnits="userSpaceOnUse" color-interpolation-filters="sRGB">
<feFlood flood-opacity="0" result="BackgroundImageFix"/>
<feColorMatrix in="SourceAlpha" type="matrix" values="0 0 0 0 0 0 0 0 0 0 0 0 0 0 0 0 0 0 127 0" result="hardAlpha"/>
<feOffset dx="2" dy="2"/>
<feGaussianBlur stdDeviation="2"/>
<feComposite in2="hardAlpha" operator="out"/>
<feColorMatrix type="matrix" values="0 0 0 0 1 0 0 0 0 1 0 0 0 0 1 0 0 0 0.15 0"/>
<feBlend mode="normal" in2="BackgroundImageFix" result="effect1_dropShadow_1093_42090"/>
<feBlend mode="normal" in="SourceGraphic" in2="effect1_dropShadow_1093_42090" result="shape"/>
</filter>
</defs>
</svg>
