<svg width="20" height="20" viewBox="0 0 20 20" fill="none" xmlns="http://www.w3.org/2000/svg">
<rect width="20" height="20" rx="3" fill="#F64D60"/>
<path fill-rule="evenodd" clip-rule="evenodd" d="M10.0005 13.0274C10.3055 13.0274 10.5528 13.2746 10.5528 13.5796V14.4498C10.5528 14.7548 10.3055 15.0021 10.0005 15.0021C9.6955 15.0021 9.44824 14.7548 9.44824 14.4498V13.5796C9.44824 13.2746 9.6955 13.0274 10.0005 13.0274Z" fill="white"/>
<path fill-rule="evenodd" clip-rule="evenodd" d="M9.44796 5.91857C7.43764 6.18933 5.88188 7.91688 5.88188 10C5.88188 12.2704 7.72986 14.1184 10.0002 14.1184C12.0834 14.1184 13.8109 12.5626 14.0817 10.5523H13.5798C13.2748 10.5523 13.0276 10.305 13.0276 10C13.0276 9.695 13.2748 9.44774 13.5798 9.44774H14.6708C14.9758 9.44774 15.2231 9.695 15.2231 10C15.2231 12.8804 12.8806 15.2229 10.0002 15.2229C7.11985 15.2229 4.77734 12.8804 4.77734 10C4.77734 7.11963 7.11985 4.77713 10.0002 4.77713C10.3052 4.77713 10.5525 5.02439 10.5525 5.3294V6.4204C10.5525 6.72541 10.3052 6.97266 10.0002 6.97266C9.69521 6.97266 9.44796 6.72541 9.44796 6.4204V5.91857Z" fill="white"/>
<path fill-rule="evenodd" clip-rule="evenodd" d="M4.99805 10C4.99805 9.69501 5.24531 9.44775 5.55032 9.44775H6.4205C6.72551 9.44775 6.97277 9.69501 6.97277 10C6.97277 10.305 6.72551 10.5523 6.4205 10.5523H5.55032C5.24531 10.5523 4.99805 10.305 4.99805 10Z" fill="white"/>
<path fill-rule="evenodd" clip-rule="evenodd" d="M10 8.2049C10.305 8.2049 10.5523 8.45215 10.5523 8.75716V9.71691L11.3922 10.3208C11.6398 10.4989 11.6962 10.844 11.5182 11.0916C11.3401 11.3393 10.995 11.3957 10.7474 11.2176L9.67761 10.4484C9.5333 10.3446 9.44775 10.1778 9.44775 10V8.75716C9.44775 8.45215 9.69501 8.2049 10 8.2049Z" fill="white"/>
<path fill-rule="evenodd" clip-rule="evenodd" d="M2 10C2 5.58173 5.58173 2 10 2C14.4183 2 18 5.58173 18 10C18 11.472 17.6019 12.8528 16.9072 14.0386C16.753 14.3018 16.4146 14.3901 16.1515 14.2359C15.8883 14.0818 15.7999 13.7434 15.9541 13.4803C16.5524 12.4592 16.8955 11.2705 16.8955 10C16.8955 6.19175 13.8083 3.10454 10 3.10454C6.19175 3.10454 3.10454 6.19175 3.10454 10C3.10454 13.8083 6.19175 16.8955 10 16.8955C11.4813 16.8955 12.852 16.429 13.9753 15.635C14.2244 15.4589 14.569 15.5181 14.7451 15.7672C14.9212 16.0162 14.862 16.3609 14.6129 16.5369C13.3092 17.4585 11.717 18 10 18C5.58173 18 2 14.4183 2 10Z" fill="white"/>
</svg>
