<svg width="28" height="28" viewBox="0 0 28 28" fill="none" xmlns="http://www.w3.org/2000/svg">
<g filter="url(#filter0_d_1093_42111)">
<rect x="2.5" y="2.5" width="19" height="19" rx="2.5" stroke="#FFA800"/>
<path fill-rule="evenodd" clip-rule="evenodd" d="M7.55891 4.16185C7.66337 4.05828 7.80506 4.00009 7.95279 4.00009H14.0961C15.1632 4.00009 16.066 4.69143 16.3765 5.64551C16.4709 5.93578 16.3102 6.24702 16.0174 6.34067C15.7246 6.43433 15.4107 6.27494 15.3162 5.98467C15.1498 5.47338 14.6656 5.10462 14.0961 5.10462H8.18352L5.11405 8.14785V17.6247C5.11405 18.3265 5.68789 18.8955 6.39579 18.8955H14.0961C14.8039 18.8955 15.3778 18.3265 15.3778 17.6247V17.5979C15.3778 17.2929 15.6272 17.0456 15.9348 17.0456C16.2425 17.0456 16.4918 17.2929 16.4918 17.5979V17.6247C16.4918 18.9366 15.4192 20 14.0961 20H6.39579C5.07261 20 4 18.9365 4 17.6247V7.91909C4 7.77262 4.05869 7.63215 4.16315 7.52858L7.55891 4.16185Z" fill="#FFA800"/>
<path fill-rule="evenodd" clip-rule="evenodd" d="M15.934 12.2763C16.2416 12.2763 16.491 12.5235 16.491 12.8285V14.4105C16.491 14.7155 16.2416 14.9627 15.934 14.9627C15.6263 14.9627 15.377 14.7155 15.377 14.4105V12.8285C15.377 12.5235 15.6263 12.2763 15.934 12.2763Z" fill="#FFA800"/>
<path fill-rule="evenodd" clip-rule="evenodd" d="M8.166 4.04206C8.37415 4.12754 8.50986 4.32891 8.50986 4.55228V6.09597C8.50986 7.40785 7.43722 8.47128 6.11408 8.47128H4.55704C4.33175 8.47128 4.12863 8.33673 4.04242 8.13036C3.9562 7.92399 4.00386 7.68645 4.16317 7.52851L7.55896 4.16177C7.71827 4.00382 7.95786 3.95657 8.166 4.04206ZM5.90183 7.36675H6.11408C6.82195 7.36675 7.39581 6.79782 7.39581 6.09597V5.88556L5.90183 7.36675Z" fill="#FFA800"/>
<path fill-rule="evenodd" clip-rule="evenodd" d="M15.9348 6.39878C14.3058 6.39878 12.9851 7.70812 12.9851 9.32326C12.9851 10.9384 14.3058 12.2477 15.9348 12.2477C17.5639 12.2477 18.8845 10.9384 18.8845 9.32326C18.8845 7.70812 17.5639 6.39878 15.9348 6.39878ZM11.8711 9.32326C11.8711 7.0981 13.6905 5.29425 15.9348 5.29425C18.1792 5.29425 19.9986 7.0981 19.9986 9.32326C19.9986 11.5484 18.1792 13.3523 15.9348 13.3523C13.6905 13.3523 11.8711 11.5484 11.8711 9.32326Z" fill="#FFA800"/>
<path fill-rule="evenodd" clip-rule="evenodd" d="M15.9359 7.44992C16.2436 7.44992 16.493 7.69718 16.493 8.00219V8.57023C16.493 8.87524 16.2436 9.1225 15.9359 9.1225C15.6283 9.1225 15.3789 8.87524 15.3789 8.57023V8.00219C15.3789 7.69718 15.6283 7.44992 15.9359 7.44992Z" fill="#FFA800"/>
<path fill-rule="evenodd" clip-rule="evenodd" d="M15.9467 10.0592C16.2543 10.0592 16.5037 10.3064 16.5037 10.6114V10.643C16.5037 10.948 16.2543 11.1953 15.9467 11.1953C15.639 11.1953 15.3896 10.948 15.3896 10.643V10.6114C15.3896 10.3064 15.639 10.0592 15.9467 10.0592Z" fill="#FFA800"/>
<path fill-rule="evenodd" clip-rule="evenodd" d="M7.02588 13.3963C7.02588 13.0913 7.27527 12.8441 7.58291 12.8441H10.6537C10.9613 12.8441 11.2107 13.0913 11.2107 13.3963C11.2107 13.7013 10.9613 13.9486 10.6537 13.9486H7.58291C7.27527 13.9486 7.02588 13.7013 7.02588 13.3963Z" fill="#FFA800"/>
<path fill-rule="evenodd" clip-rule="evenodd" d="M7.02588 16.1647C7.02588 15.8597 7.27527 15.6124 7.58291 15.6124H12.905C13.2127 15.6124 13.4621 15.8597 13.4621 16.1647C13.4621 16.4697 13.2127 16.717 12.905 16.717H7.58291C7.27527 16.717 7.02588 16.4697 7.02588 16.1647Z" fill="#FFA800"/>
<path fill-rule="evenodd" clip-rule="evenodd" d="M7.02588 10.6158C7.02588 10.3108 7.27527 10.0635 7.58291 10.0635H9.49157C9.7992 10.0635 10.0486 10.3108 10.0486 10.6158C10.0486 10.9208 9.7992 11.168 9.49157 11.168H7.58291C7.27527 11.168 7.02588 10.9208 7.02588 10.6158Z" fill="#FFA800"/>
</g>
<defs>
<filter id="filter0_d_1093_42111" x="0" y="0" width="28" height="28" filterUnits="userSpaceOnUse" color-interpolation-filters="sRGB">
<feFlood flood-opacity="0" result="BackgroundImageFix"/>
<feColorMatrix in="SourceAlpha" type="matrix" values="0 0 0 0 0 0 0 0 0 0 0 0 0 0 0 0 0 0 127 0" result="hardAlpha"/>
<feOffset dx="2" dy="2"/>
<feGaussianBlur stdDeviation="2"/>
<feComposite in2="hardAlpha" operator="out"/>
<feColorMatrix type="matrix" values="0 0 0 0 1 0 0 0 0 1 0 0 0 0 1 0 0 0 0.15 0"/>
<feBlend mode="normal" in2="BackgroundImageFix" result="effect1_dropShadow_1093_42111"/>
<feBlend mode="normal" in="SourceGraphic" in2="effect1_dropShadow_1093_42111" result="shape"/>
</filter>
</defs>
</svg>
