<svg width="20" height="20" viewBox="0 0 20 20" fill="none" xmlns="http://www.w3.org/2000/svg">
<rect x="0.5" y="0.5" width="19" height="19" rx="2.5" stroke="#FF7B54"/>
<g clip-path="url(#clip0_1130_37588)">
<path d="M4.94438 9.40176C4.93566 9.40438 4.92725 9.4076 4.91869 9.4106C4.90934 9.41385 4.90003 9.4171 4.89094 9.42076C4.88269 9.4241 4.87463 9.42775 4.86656 9.43144C4.85722 9.43569 4.84797 9.4401 4.83888 9.44479C4.83166 9.44851 4.8245 9.45232 4.81741 9.45635C4.80734 9.46204 4.79753 9.4681 4.78784 9.47429C4.78209 9.47797 4.77628 9.48154 4.77069 9.48538C4.75788 9.49419 4.7455 9.50354 4.73344 9.51322C4.73119 9.51504 4.72881 9.51663 4.72659 9.51847C4.71231 9.53032 4.69866 9.54282 4.6855 9.55582C4.68181 9.55947 4.67841 9.56338 4.67481 9.5671C4.66566 9.57663 4.65672 9.58632 4.64819 9.59638C4.64369 9.60169 4.63941 9.60716 4.63506 9.61263C4.62794 9.62163 4.62106 9.63082 4.61444 9.64022C4.61009 9.64638 4.60581 9.65254 4.60169 9.65882C4.5955 9.66832 4.58972 9.67804 4.58403 9.68785C4.58034 9.69419 4.5765 9.70044 4.57306 9.70691C4.56531 9.72151 4.55813 9.73641 4.55153 9.75163C4.54859 9.75841 4.54609 9.76538 4.54341 9.77226C4.53894 9.78366 4.53456 9.7951 4.53075 9.80682C4.52831 9.81435 4.52625 9.82204 4.52406 9.82969C4.52103 9.84044 4.51819 9.85122 4.51572 9.86216C4.514 9.86982 4.51241 9.87747 4.51097 9.88522C4.50869 9.89735 4.50691 9.90963 4.50537 9.92197C4.50456 9.9286 4.50353 9.93516 4.50294 9.94185C4.50116 9.96104 4.5 9.98041 4.5 10C4.5 13.0327 6.96728 15.5 10 15.5C13.0187 15.5 15.4769 13.0553 15.4995 10.0418C15.4995 10.0382 15.5 10.0348 15.5 10.0313C15.5 10.0265 15.4998 10.0217 15.4998 10.0169C15.4998 10.0113 15.5 10.0057 15.5 10C15.5 9.99557 15.4994 9.99126 15.4993 9.98685C15.4923 9.13041 15.2842 8.279 14.8953 7.52175C14.5128 6.777 13.9548 6.11844 13.2817 5.61729C13.0049 5.41116 12.6133 5.46847 12.4072 5.74535C12.2011 6.02222 12.2584 6.41379 12.5352 6.61991C13.6211 7.42835 14.2453 8.66576 14.2498 10.0166C14.2408 12.3524 12.3379 14.25 10 14.25C7.95153 14.25 6.237 12.7932 5.83778 10.8613C7.22897 11.2649 9.42675 11.875 10 11.875C11.0339 11.875 11.875 11.0339 11.875 10C11.875 8.96613 11.0339 8.12501 10 8.12501C9.27469 8.12501 5.94831 9.10179 4.94613 9.40116C4.94553 9.40135 4.94497 9.40157 4.94438 9.40176ZM10 9.37501C10.3446 9.37501 10.625 9.65538 10.625 10C10.625 10.3446 10.3446 10.625 10.0002 10.625C9.74578 10.6225 8.66553 10.3539 7.38637 10.0004C8.65941 9.64907 9.75019 9.37744 10 9.37501Z" fill="#FF7B54"/>
<path d="M15.6569 4.34313C14.1458 2.83216 12.1369 2 10 2C7.86313 2 5.85416 2.83216 4.34313 4.34313C2.83216 5.85416 2 7.86313 2 10C2 12.1369 2.83216 14.1458 4.34313 15.6569C5.85416 17.1678 7.86313 18 10 18C11.4629 18 12.8943 17.6013 14.1394 16.8471C14.4347 16.6682 14.529 16.2839 14.3502 15.9887C14.1713 15.6934 13.787 15.5991 13.4918 15.7779C12.442 16.4139 11.2346 16.75 10 16.75C6.27803 16.75 3.25 13.722 3.25 10C3.25 6.27803 6.27803 3.25 10 3.25C13.722 3.25 16.75 6.27803 16.75 10C16.75 11.3309 16.3542 12.6264 15.6054 13.7464C15.4136 14.0333 15.4907 14.4215 15.7776 14.6133C16.0646 14.8052 16.4527 14.7281 16.6446 14.4411C17.5313 13.1148 18 11.5791 18 10C18 7.86313 17.1678 5.85416 15.6569 4.34313Z" fill="#FF7B54"/>
<path d="M10.6172 5.82566C10.6477 5.83009 10.6779 5.83225 10.7078 5.83225C11.0132 5.83225 11.2803 5.60812 11.3255 5.29703C11.3752 4.95544 11.1385 4.63828 10.7969 4.58866C10.5348 4.55056 10.2667 4.53125 10 4.53125C9.65481 4.53125 9.375 4.81106 9.375 5.15625C9.375 5.50144 9.65481 5.78125 10 5.78125C10.2067 5.78125 10.4144 5.79622 10.6172 5.82566Z" fill="#FF7B54"/>
</g>
<defs>
<clipPath id="clip0_1130_37588">
<rect width="16" height="16" fill="white" transform="translate(2 2)"/>
</clipPath>
</defs>
</svg>
