<svg width="20" height="20" viewBox="0 0 20 20" fill="none" xmlns="http://www.w3.org/2000/svg">
<rect x="0.5" y="0.5" width="19" height="19" rx="2.5" stroke="#0A617D"/>
<g clip-path="url(#clip0_1130_37580)">
<path d="M15.6569 4.34313C14.1458 2.83216 12.1369 2 10 2C7.86313 2 5.85416 2.83216 4.34313 4.34313C2.83216 5.85416 2 7.86313 2 10C2 12.1369 2.83216 14.1458 4.34313 15.6569C5.85416 17.1678 7.86313 18 10 18C11.4629 18 12.8943 17.6013 14.1394 16.8471C14.4347 16.6682 14.529 16.2839 14.3502 15.9887C14.1713 15.6934 13.787 15.5991 13.4918 15.7779C12.442 16.4139 11.2346 16.75 10 16.75C6.27803 16.75 3.25 13.722 3.25 10C3.25 6.27803 6.27803 3.25 10 3.25C13.722 3.25 16.75 6.27803 16.75 10C16.75 11.3309 16.3542 12.6264 15.6054 13.7464C15.4136 14.0333 15.4907 14.4215 15.7776 14.6133C16.0646 14.8052 16.4527 14.7281 16.6446 14.4411C17.5313 13.1148 18 11.5791 18 10C18 7.86313 17.1678 5.85416 15.6569 4.34313Z" fill="#0A617D"/>
<path fill-rule="evenodd" clip-rule="evenodd" d="M10.4614 11.2343C10.8797 11.6746 11.5556 12.1797 12.4648 12.1797C12.7561 12.1797 12.9922 11.9436 12.9922 11.6523C12.9922 11.3611 12.7561 11.125 12.4648 11.125C11.9679 11.125 11.55 10.8488 11.2261 10.5079C11.087 10.3615 10.9757 10.2136 10.8947 10.0937C10.9784 9.97244 11.0933 9.82236 11.2359 9.6738C11.5672 9.32868 11.9853 9.05469 12.4648 9.05469C13.0365 9.05469 13.5 9.51815 13.5 10.0898C13.5 10.3811 13.7361 10.6172 14.0273 10.6172C14.3186 10.6172 14.5547 10.3811 14.5547 10.0898C14.5547 8.93566 13.619 8 12.4648 8C11.5694 8 10.8937 8.50726 10.475 8.94339C10.2607 9.16668 10.0971 9.38805 9.987 9.55319C9.93163 9.63624 9.88894 9.70637 9.85934 9.75715C9.84452 9.78258 9.83292 9.80326 9.82461 9.8184C9.82045 9.82597 9.8171 9.83217 9.81458 9.83689C9.81332 9.83925 9.81226 9.84124 9.81141 9.84286L9.81029 9.84499L9.80965 9.84622C9.80956 9.84639 9.80948 9.84655 10.2773 10.0898C9.80567 10.3257 9.80576 10.3259 9.80585 10.326L9.80604 10.3264L9.80649 10.3273L9.8076 10.3295C9.80844 10.3312 9.80947 10.3332 9.81071 10.3356C9.81318 10.3404 9.81645 10.3467 9.82051 10.3543C9.82863 10.3697 9.83993 10.3905 9.85439 10.4161C9.88326 10.4673 9.92495 10.5379 9.97924 10.6214C10.0872 10.7874 10.2483 11.0099 10.4614 11.2343ZM10.2773 10.0898L9.80567 10.3257C9.73012 10.1746 9.73154 9.99643 9.80948 9.84655L10.2773 10.0898Z" fill="#0A617D"/>
<path fill-rule="evenodd" clip-rule="evenodd" d="M6 10.0898C6 11.244 6.93566 12.1797 8.08984 12.1797C8.9991 12.1797 9.67497 11.6746 10.0933 11.2343C10.3064 11.0099 10.4675 10.7874 10.5754 10.6214C10.6297 10.5379 10.6714 10.4673 10.7003 10.4161C10.7148 10.3905 10.7261 10.3697 10.7342 10.3543C10.7382 10.3467 10.7415 10.3404 10.744 10.3356C10.7452 10.3332 10.7463 10.3312 10.7471 10.3295L10.7482 10.3273L10.7488 10.326C10.7489 10.3259 10.749 10.3257 10.2773 10.0898C10.749 9.85401 10.7489 9.85384 10.7488 9.85366L10.7482 9.85239L10.7471 9.85019C10.7463 9.84854 10.7452 9.8465 10.744 9.8441C10.7415 9.83929 10.7382 9.83301 10.7342 9.82534C10.7261 9.81003 10.7148 9.78917 10.7003 9.76355C10.6714 9.71238 10.6297 9.64182 10.5754 9.55831C10.4675 9.39227 10.3064 9.16978 10.0933 8.94539C9.67497 8.50508 8.9991 8 8.08984 8C6.93566 8 6 8.93566 6 10.0898ZM10.2773 10.0898L10.749 9.85401C10.8232 10.0025 10.8232 10.1772 10.749 10.3257L10.2773 10.0898ZM9.80614 10.3266C9.80643 10.3272 9.80653 10.3274 9.80645 10.3272L9.8062 10.3267L9.80614 10.3266ZM9.66254 10.0898C9.58139 9.96926 9.46919 9.81978 9.32861 9.6718C9.00472 9.33086 8.58684 9.05469 8.08984 9.05469C7.51815 9.05469 7.05469 9.51815 7.05469 10.0898C7.05469 10.6615 7.51815 11.125 8.08984 11.125C8.58684 11.125 9.00472 10.8488 9.32861 10.5079C9.46919 10.3599 9.58139 10.2104 9.66254 10.0898ZM9.80614 9.85306C9.80632 9.85271 9.80643 9.8525 9.80646 9.85243C9.80649 9.85239 9.80648 9.8524 9.80645 9.85246L9.8062 9.85296L9.80614 9.85306Z" fill="#0A617D"/>
</g>
<defs>
<clipPath id="clip0_1130_37580">
<rect width="16" height="16" fill="white" transform="translate(2 2)"/>
</clipPath>
</defs>
</svg>
