<svg width="20" height="20" viewBox="0 0 20 20" fill="none" xmlns="http://www.w3.org/2000/svg">
<rect width="20" height="20" rx="3" fill="#EC641B"/>
<g clip-path="url(#clip0_1087_39630)">
<path fill-rule="evenodd" clip-rule="evenodd" d="M9.99997 6.51956C8.07778 6.51956 6.51953 8.07781 6.51953 10C6.51953 11.9222 8.07778 13.4804 9.99997 13.4804C11.9222 13.4804 13.4804 11.9222 13.4804 10C13.4804 8.07781 11.9222 6.51956 9.99997 6.51956ZM5.42578 10C5.42578 7.47374 7.47371 5.42581 9.99997 5.42581C12.5262 5.42581 14.5742 7.47374 14.5742 10C14.5742 12.5263 12.5262 14.5742 9.99997 14.5742C7.47371 14.5742 5.42578 12.5263 5.42578 10Z" fill="white"/>
<path fill-rule="evenodd" clip-rule="evenodd" d="M10 2.15948C10.302 2.15948 10.5469 2.40433 10.5469 2.70636V5.94142C10.5469 6.24345 10.302 6.4883 10 6.4883C9.69797 6.4883 9.45312 6.24345 9.45312 5.94142V2.70636C9.45312 2.40433 9.69797 2.15948 10 2.15948Z" fill="white"/>
<path fill-rule="evenodd" clip-rule="evenodd" d="M13.7559 10C13.7559 9.69797 14.0007 9.45312 14.3027 9.45312H17.223C17.525 9.45312 17.7698 9.69797 17.7698 10C17.7698 10.302 17.525 10.5469 17.223 10.5469H14.3027C14.0007 10.5469 13.7559 10.302 13.7559 10Z" fill="white"/>
<path fill-rule="evenodd" clip-rule="evenodd" d="M2.23438 10C2.23438 9.69797 2.47922 9.45312 2.78125 9.45312H5.70147C6.0035 9.45312 6.24834 9.69797 6.24834 10C6.24834 10.302 6.0035 10.5469 5.70147 10.5469H2.78125C2.47922 10.5469 2.23438 10.302 2.23438 10Z" fill="white"/>
<path fill-rule="evenodd" clip-rule="evenodd" d="M8.04853 13.0743C8.2796 13.2688 8.30924 13.6138 8.11474 13.8449L6.12006 16.2146C5.92556 16.4456 5.58056 16.4753 5.3495 16.2808C5.11843 16.0863 5.08879 15.7413 5.28329 15.5102L7.27798 13.1405C7.47248 12.9094 7.81747 12.8798 8.04853 13.0743Z" fill="white"/>
<path fill-rule="evenodd" clip-rule="evenodd" d="M2.07812 10C2.07812 5.62488 5.62488 2.07812 10 2.07812C14.3751 2.07812 17.9219 5.62488 17.9219 10C17.9219 11.5861 17.4552 13.0649 16.6514 14.3045C16.4871 14.5579 16.1485 14.6301 15.895 14.4658C15.6416 14.3015 15.5694 13.9629 15.7337 13.7094C16.426 12.6417 16.8281 11.3686 16.8281 10C16.8281 6.22894 13.7711 3.17188 10 3.17188C6.22894 3.17188 3.17188 6.22894 3.17188 10C3.17188 13.7711 6.22894 16.8281 10 16.8281C11.3571 16.8281 12.6201 16.4328 13.6823 15.7512C13.9365 15.5881 14.2748 15.6619 14.4379 15.9161C14.601 16.1703 14.5272 16.5086 14.273 16.6717C13.0399 17.463 11.5727 17.9219 10 17.9219C5.62488 17.9219 2.07812 14.3751 2.07812 10Z" fill="white"/>
</g>
<defs>
<clipPath id="clip0_1087_39630">
<rect width="16" height="16" fill="white" transform="translate(2 2)"/>
</clipPath>
</defs>
</svg>
