<svg width="28" height="28" viewBox="0 0 28 28" fill="none" xmlns="http://www.w3.org/2000/svg">
<g filter="url(#filter0_d_1093_42099)">
<rect x="2.5" y="2.5" width="19" height="19" rx="2.5" stroke="#F64D60"/>
<path fill-rule="evenodd" clip-rule="evenodd" d="M12.0005 15.0274C12.3055 15.0274 12.5528 15.2746 12.5528 15.5796V16.4498C12.5528 16.7548 12.3055 17.0021 12.0005 17.0021C11.6955 17.0021 11.4482 16.7548 11.4482 16.4498V15.5796C11.4482 15.2746 11.6955 15.0274 12.0005 15.0274Z" fill="#F64D60"/>
<path fill-rule="evenodd" clip-rule="evenodd" d="M11.448 7.91857C9.43764 8.18933 7.88188 9.91688 7.88188 12C7.88188 14.2704 9.72986 16.1184 12.0002 16.1184C14.0834 16.1184 15.8109 14.5626 16.0817 12.5523H15.5798C15.2748 12.5523 15.0276 12.305 15.0276 12C15.0276 11.695 15.2748 11.4477 15.5798 11.4477H16.6708C16.9758 11.4477 17.2231 11.695 17.2231 12C17.2231 14.8804 14.8806 17.2229 12.0002 17.2229C9.11985 17.2229 6.77734 14.8804 6.77734 12C6.77734 9.11963 9.11985 6.77713 12.0002 6.77713C12.3052 6.77713 12.5525 7.02439 12.5525 7.3294V8.4204C12.5525 8.72541 12.3052 8.97266 12.0002 8.97266C11.6952 8.97266 11.448 8.72541 11.448 8.4204V7.91857Z" fill="#F64D60"/>
<path fill-rule="evenodd" clip-rule="evenodd" d="M6.99805 12C6.99805 11.695 7.24531 11.4478 7.55032 11.4478H8.4205C8.72551 11.4478 8.97277 11.695 8.97277 12C8.97277 12.305 8.72551 12.5523 8.4205 12.5523H7.55032C7.24531 12.5523 6.99805 12.305 6.99805 12Z" fill="#F64D60"/>
<path fill-rule="evenodd" clip-rule="evenodd" d="M12 10.2049C12.305 10.2049 12.5523 10.4522 12.5523 10.7572V11.7169L13.3922 12.3208C13.6398 12.4989 13.6962 12.844 13.5182 13.0916C13.3401 13.3393 12.995 13.3957 12.7474 13.2176L11.6776 12.4484C11.5333 12.3446 11.4478 12.1778 11.4478 12V10.7572C11.4478 10.4522 11.695 10.2049 12 10.2049Z" fill="#F64D60"/>
<path fill-rule="evenodd" clip-rule="evenodd" d="M4 12C4 7.58173 7.58173 4 12 4C16.4183 4 20 7.58173 20 12C20 13.472 19.6019 14.8528 18.9072 16.0386C18.753 16.3018 18.4146 16.3901 18.1515 16.2359C17.8883 16.0818 17.7999 15.7434 17.9541 15.4803C18.5524 14.4592 18.8955 13.2705 18.8955 12C18.8955 8.19175 15.8083 5.10454 12 5.10454C8.19175 5.10454 5.10454 8.19175 5.10454 12C5.10454 15.8083 8.19175 18.8955 12 18.8955C13.4813 18.8955 14.852 18.429 15.9753 17.635C16.2244 17.4589 16.569 17.5181 16.7451 17.7672C16.9212 18.0162 16.862 18.3609 16.6129 18.5369C15.3092 19.4585 13.717 20 12 20C7.58173 20 4 16.4183 4 12Z" fill="#F64D60"/>
</g>
<defs>
<filter id="filter0_d_1093_42099" x="0" y="0" width="28" height="28" filterUnits="userSpaceOnUse" color-interpolation-filters="sRGB">
<feFlood flood-opacity="0" result="BackgroundImageFix"/>
<feColorMatrix in="SourceAlpha" type="matrix" values="0 0 0 0 0 0 0 0 0 0 0 0 0 0 0 0 0 0 127 0" result="hardAlpha"/>
<feOffset dx="2" dy="2"/>
<feGaussianBlur stdDeviation="2"/>
<feComposite in2="hardAlpha" operator="out"/>
<feColorMatrix type="matrix" values="0 0 0 0 1 0 0 0 0 1 0 0 0 0 1 0 0 0 0.15 0"/>
<feBlend mode="normal" in2="BackgroundImageFix" result="effect1_dropShadow_1093_42099"/>
<feBlend mode="normal" in="SourceGraphic" in2="effect1_dropShadow_1093_42099" result="shape"/>
</filter>
</defs>
</svg>
