<svg width="20" height="20" viewBox="0 0 20 20" fill="none" xmlns="http://www.w3.org/2000/svg">
<rect x="0.5" y="0.5" width="19" height="19" rx="2.5" stroke="#8A50FC"/>
<path fill-rule="evenodd" clip-rule="evenodd" d="M8.27246 5.82323C8.27246 5.56179 8.4844 5.34985 8.74583 5.34985H11.251C11.5125 5.34985 11.7244 5.56179 11.7244 5.82323V9.18316C11.7244 9.4446 11.5125 9.65654 11.251 9.65654H8.74583C8.4844 9.65654 8.27246 9.4446 8.27246 9.18316V5.82323ZM9.21921 6.2966V8.70979H10.7776V6.2966H9.21921Z" fill="#8A50FC"/>
<path fill-rule="evenodd" clip-rule="evenodd" d="M8.27246 11.6716C8.27246 11.4101 8.4844 11.1982 8.74583 11.1982H11.251C11.5125 11.1982 11.7244 11.4101 11.7244 11.6716V14.1767C11.7244 14.4382 11.5125 14.6501 11.251 14.6501H8.74583C8.4844 14.6501 8.27246 14.4382 8.27246 14.1767V11.6716ZM9.21921 12.1449V13.7034H10.7776V12.1449H9.21921Z" fill="#8A50FC"/>
<path fill-rule="evenodd" clip-rule="evenodd" d="M5.88089 2.80542C6.39657 2.28973 7.096 2 7.82533 2H12.1747C12.904 2 13.6034 2.28973 14.1191 2.80542L17.1946 5.88089C17.7103 6.39657 18 7.096 18 7.82533V12.1747C18 12.904 17.7103 13.6034 17.1946 14.1191L16.8236 14.4901C16.6079 14.7058 16.2583 14.7058 16.0426 14.4901C15.8269 14.2744 15.8269 13.9247 16.0426 13.7091L16.4136 13.3381C16.7221 13.0295 16.8955 12.611 16.8955 12.1747V7.82533C16.8955 7.38895 16.7221 6.97047 16.4136 6.66191L13.3381 3.58644C13.0295 3.27789 12.611 3.10454 12.1747 3.10454H7.82533C7.38895 3.10454 6.97047 3.27789 6.66191 3.58644L3.58644 6.66191C3.27789 6.97047 3.10454 7.38895 3.10454 7.82533V12.1747C3.10454 12.611 3.27789 13.0295 3.58644 13.3381L6.66191 16.4136C6.97047 16.7221 7.38895 16.8955 7.82533 16.8955H12.1747C12.611 16.8955 13.0295 16.7221 13.3381 16.4136L13.8111 15.9406C14.0268 15.7249 14.3764 15.7249 14.5921 15.9406C14.8078 16.1562 14.8078 16.5059 14.5921 16.7216L14.1191 17.1946C13.6034 17.7103 12.904 18 12.1747 18H7.82533C7.096 18 6.39657 17.7103 5.88089 17.1946L2.80542 14.1191C2.28973 13.6034 2 12.904 2 12.1747V7.82533C2 7.096 2.28973 6.39657 2.80542 5.88089L5.88089 2.80542Z" fill="#8A50FC"/>
</svg>
